<?xml version="1.0" encoding="utf-8"?>
<!-- Generator: Adobe Illustrator 20.1.0, SVG Export Plug-In . SVG Version: 6.00 Build 0)  -->
<svg version="1.1" xmlns="http://www.w3.org/2000/svg" xmlns:xlink="http://www.w3.org/1999/xlink" x="0px" y="0px"
	 viewBox="0 0 1133.9 850.4" style="enable-background:new 0 0 1133.9 850.4;" xml:space="preserve">
<style type="text/css">
	.st0{fill:#DDDDDD;}
	.st1{fill:#FFFFFF;}
</style>
<g id="bg">
	<rect class="st0" width="1133.9" height="850.4"/>
</g>
<g id="Layer_2">
	<path class="st1" d="M396.9,351.1c13.7-13.5,20.6-29.8,20.6-48.8c0-19-6.8-35.5-20.6-49.2c-13.5-13.5-29.7-20.1-48.8-20.1
		c-19.1,0-35.5,6.6-49,20.1c-13.5,13.7-20.3,30.2-20.3,49.2c0,19.1,6.8,35.3,20.3,48.8c13.5,13.7,30,20.5,49,20.5
		C367.2,371.7,383.5,364.8,396.9,351.1L396.9,351.1z"/>
	<path class="st1" d="M304.3,402.7c-12.6,12.6-19,27.6-19,45.4L285,617.4h128.5l0.2-107l73.7,70.9l72.3-69.8v106h128.5v-168
		c0-17.8-6.2-32.7-18.8-45.4c-12.6-12.6-27.6-18.8-45.4-18.8c-9.2,0-17.8,1.7-25.5,5.1c-3.9,1.1-7.3,2.8-10.5,5.1
		c-3.6,3.2-6.2,5.6-7.7,7.1c-0.8,0.6-1.5,1.3-1.7,1.5c-1.1,1.1-2.3,2.4-3.4,3.7l-87.8,88L398.7,407c-1.3-1.5-2.6-2.8-3.8-4.1
		c-12.6-12.6-27.6-19-45.2-19C331.9,383.9,316.9,390.1,304.3,402.7L304.3,402.7z"/>
	<path class="st1" d="M834.5,253.1C821,239.6,804.7,233,785.7,233c-19.1,0-35.5,6.6-49,20.1c-13.5,13.7-20.3,30.2-20.3,49.2
		c0,19.1,6.9,35.3,20.3,48.8c13.5,13.7,30,20.5,49,20.5c19,0,35.3-6.9,48.8-20.5c13.7-13.5,20.6-29.8,20.6-48.8
		C855.1,283.3,848.2,266.8,834.5,253.1L834.5,253.1z"/>
	<path class="st1" d="M623,233c-19,0-35.5,6.6-49,20.1c-13.5,13.7-20.3,30.2-20.3,49.2c0,19.1,6.9,35.3,20.3,48.8
		c13.5,13.7,30,20.5,49,20.5c19,0,35.3-6.9,48.8-20.5c13.7-13.5,20.6-29.8,20.6-48.8c0-19-6.9-35.5-20.6-49.2
		C658.3,239.6,642.1,233,623,233L623,233z"/>
	<path class="st1" d="M741.2,402.9c-12.6,12.6-18.8,27.6-18.8,45.4v169.1h128.5V448.3c0-17.8-6.2-32.7-18.8-45.4
		c-12.6-12.6-27.6-18.8-45.4-18.8S753.8,390.3,741.2,402.9L741.2,402.9z"/>
</g>
</svg>
