<?xml version="1.0" encoding="utf-8"?>
<!-- Generator: Adobe Illustrator 20.1.0, SVG Export Plug-In . SVG Version: 6.00 Build 0)  -->
<svg version="1.1" id="Layer_1" xmlns="http://www.w3.org/2000/svg" xmlns:xlink="http://www.w3.org/1999/xlink" x="0px" y="0px"
	 viewBox="0 0 73.7 68" style="enable-background:new 0 0 73.7 68;" xml:space="preserve">
<style type="text/css">
	.st0{fill:#E3D200;}
</style>
<path class="st0" d="M24.2,32.5c-1.3,0-2.3-1-2.3-2.3c0-1.3,1-2.3,2.3-2.3h8.7c1.3,0,2.3,1,2.3,2.3c0,1.3-1,2.3-2.3,2.3H24.2z"/>
<path class="st0" d="M24.2,31.2h8.7c0.5,0,1-0.4,1-1c0-0.5-0.4-1-1-1h-8.7c-0.5,0-1,0.4-1,1C23.2,30.8,23.6,31.2,24.2,31.2"/>
<path class="st0" d="M24.2,41.3c-1.3,0-2.3-1-2.3-2.3c0-1.3,1-2.3,2.3-2.3h8.7c1.3,0,2.3,1,2.3,2.3c0,1.3-1,2.3-2.3,2.3H24.2z"/>
<path class="st0" d="M24.2,39.9h8.7c0.5,0,1-0.4,1-1c0-0.5-0.4-1-1-1h-8.7c-0.5,0-1,0.4-1,1C23.2,39.5,23.6,39.9,24.2,39.9"/>
<path class="st0" d="M24.2,50c-1.3,0-2.3-1-2.3-2.3c0-1.3,1-2.3,2.3-2.3h8.7c1.3,0,2.3,1,2.3,2.3c0,1.3-1,2.3-2.3,2.3H24.2z"/>
<path class="st0" d="M24.2,48.6h8.7c0.5,0,1-0.4,1-1c0-0.5-0.4-1-1-1h-8.7c-0.5,0-1,0.4-1,1C23.2,48.2,23.6,48.6,24.2,48.6"/>
<path class="st0" d="M59.1,6.4c-1.3,0-2.3-1-2.3-2.3c0-1.3,1-2.3,2.3-2.3h8.7c1.3,0,2.3,1,2.3,2.3c0,1.3-1,2.3-2.3,2.3H59.1z"/>
<path class="st0" d="M59.1,5h8.7c0.5,0,1-0.4,1-1c0-0.5-0.4-1-1-1h-8.7c-0.5,0-1,0.4-1,1C58.1,4.6,58.5,5,59.1,5"/>
<path class="st0" d="M59.1,15.1c-1.3,0-2.3-1-2.3-2.3c0-1.3,1-2.3,2.3-2.3h8.7c1.3,0,2.3,1,2.3,2.3c0,1.3-1,2.3-2.3,2.3H59.1z"/>
<path class="st0" d="M59.1,13.7h8.7c0.5,0,1-0.4,1-1c0-0.5-0.4-1-1-1h-8.7c-0.5,0-1,0.4-1,1C58.1,13.3,58.5,13.7,59.1,13.7"/>
<path class="st0" d="M59.1,23.8c-1.3,0-2.3-1-2.3-2.3c0-1.3,1-2.3,2.3-2.3h8.7c1.3,0,2.3,1,2.3,2.3c0,1.3-1,2.3-2.3,2.3H59.1z"/>
<path class="st0" d="M59.1,22.5h8.7c0.5,0,1-0.4,1-1c0-0.5-0.4-1-1-1h-8.7c-0.5,0-1,0.4-1,1C58.1,22,58.5,22.5,59.1,22.5"/>
<path class="st0" d="M6.7,23.8c-1.3,0-2.3-1-2.3-2.3v-8.7c0-1.3,1-2.3,2.3-2.3c1.3,0,2.3,1,2.3,2.3v8.7C9,22.8,8,23.8,6.7,23.8"/>
<path class="st0" d="M6.7,22.5c0.5,0,1-0.4,1-1v-8.7c0-0.5-0.4-1-1-1c-0.5,0-1,0.4-1,1v8.7C5.7,22,6.2,22.5,6.7,22.5"/>
<path class="st0" d="M59.1,50c-1.3,0-2.3-1-2.3-2.3V39c0-1.3,1-2.3,2.3-2.3c1.3,0,2.3,1,2.3,2.3v8.7C61.4,48.9,60.3,50,59.1,50"/>
<path class="st0" d="M59.1,38c-0.5,0-1,0.4-1,1v8.7c0,0.5,0.4,1,1,1c0.5,0,1-0.4,1-1V39C60,38.4,59.6,38,59.1,38"/>
<path class="st0" d="M50.3,50c-1.3,0-2.3-1-2.3-2.3V39c0-1.3,1-2.3,2.3-2.3c1.3,0,2.3,1,2.3,2.3v8.7C52.6,48.9,51.6,50,50.3,50"/>
<path class="st0" d="M50.3,38c-0.5,0-1,0.4-1,1v8.7c0,0.5,0.4,1,1,1c0.5,0,1-0.4,1-1V39C51.3,38.4,50.9,38,50.3,38"/>
<path class="st0" d="M50.3,50c-0.6,0-1.2-0.2-1.6-0.6l0,0L31.3,31.9l-0.1-0.1c-0.4-0.4-0.6-1-0.6-1.6c0-1.3,1-2.3,2.3-2.3
	c0.6,0,1.2,0.2,1.6,0.6l0,0L52,46.1c0.4,0.4,0.7,1,0.7,1.6C52.6,48.9,51.6,50,50.3,50"/>
<path class="st0" d="M32.2,30.9L32.2,30.9L32.2,30.9l17.5,17.5h0c0.2,0.2,0.4,0.3,0.7,0.3c0.5,0,1-0.4,1-1c0-0.3-0.1-0.5-0.3-0.7
	L33.6,29.5v0c-0.2-0.2-0.4-0.3-0.7-0.3c-0.5,0-1,0.4-1,1C31.9,30.5,32,30.7,32.2,30.9L32.2,30.9z"/>
<path class="st0" d="M50.3,32.5L50.3,32.5c-0.8,0-1.5-0.4-1.9-1c-0.5-0.8-0.5-1.8,0-2.6c0.4-0.6,1.1-1,1.9-1l0,0h17.5
	c0.8,0,1.5,0.4,1.9,1c0.5,0.8,0.5,1.8,0,2.6c-0.4,0.6-1.1,1-1.9,1l0,0H50.3L50.3,32.5z"/>
<path class="st0" d="M50.3,31.2L50.3,31.2L50.3,31.2h17.5v0c0.3,0,0.6-0.1,0.8-0.4c0.2-0.3,0.2-0.8,0-1.1c-0.2-0.3-0.5-0.4-0.8-0.4
	l-17.5,0c-0.3,0-0.6,0.1-0.8,0.4c-0.2,0.3-0.2,0.8,0,1.1C49.7,31.1,50,31.2,50.3,31.2z"/>
<path class="st0" d="M15.4,15.1c-0.4,0-0.7-0.1-1-0.3c-0.2-0.1-0.4-0.3-0.6-0.4l-0.1-0.1L5,5.6L4.9,5.4C4.6,5,4.4,4.6,4.4,4.1
	c0-1.3,1-2.3,2.3-2.3c0.5,0,1,0.2,1.4,0.5l0.1,0.1l8.7,8.7l0.1,0.1c0.4,0.4,0.7,1,0.7,1.6C17.7,14,16.7,15.1,15.4,15.1"/>
<path class="st0" d="M14.7,13.4L14.7,13.4c0.2,0.2,0.5,0.4,0.8,0.4c0.5,0,1-0.4,1-1c0-0.3-0.1-0.6-0.4-0.8l0,0L7.3,3.3
	C7.1,3.2,6.9,3.1,6.7,3.1c-0.5,0-1,0.4-1,1c0,0.2,0.1,0.4,0.2,0.6L14.7,13.4z"/>
<path class="st0" d="M6.7,50c-1.3,0-2.3-1-2.3-2.3V39c0-1.3,1-2.3,2.3-2.3C8,36.7,9,37.7,9,39v8.7C9,48.9,8,50,6.7,50"/>
<path class="st0" d="M6.7,48.6c0.5,0,1-0.4,1-1V39c0-0.5-0.4-1-1-1c-0.5,0-1,0.4-1,1v8.7C5.7,48.2,6.2,48.6,6.7,48.6"/>
<path class="st0" d="M15.4,41.3c-0.4,0-0.7-0.1-1-0.3c-0.2-0.1-0.4-0.3-0.6-0.4l-0.1-0.1L5,31.8l-0.1-0.1c-0.3-0.4-0.5-0.9-0.5-1.4
	c0-1.3,1-2.3,2.3-2.3c0.5,0,1,0.2,1.4,0.5l0.1,0.1l8.7,8.7l0.1,0.1c0.4,0.4,0.7,1,0.7,1.6C17.7,40.2,16.7,41.3,15.4,41.3"/>
<path class="st0" d="M14.7,39.5L14.7,39.5c0.2,0.2,0.5,0.4,0.8,0.4c0.5,0,1-0.4,1-1c0-0.3-0.1-0.6-0.4-0.8l0,0l-8.7-8.7
	c-0.2-0.1-0.4-0.2-0.6-0.2c-0.5,0-1,0.4-1,1c0,0.2,0.1,0.4,0.2,0.6L14.7,39.5z"/>
<path class="st0" d="M15.4,23.8c-1.3,0-2.3-1-2.3-2.3c0-0.6,0.2-1.2,0.7-1.6l0.1-0.1l8.7-8.7l0.1-0.1c0.4-0.3,0.9-0.5,1.4-0.5
	c1.3,0,2.3,1,2.3,2.3c0,0.5-0.2,1-0.5,1.4l-0.1,0.1L17.2,23l-0.1,0.1c-0.2,0.2-0.4,0.3-0.6,0.4C16.2,23.7,15.8,23.8,15.4,23.8"/>
<path class="st0" d="M24.2,11.8c-0.2,0-0.4,0.1-0.6,0.2l-8.7,8.7l0,0c-0.2,0.2-0.4,0.4-0.4,0.8c0,0.5,0.4,1,1,1
	c0.3,0,0.6-0.2,0.8-0.4l0,0l8.7-8.7c0.1-0.2,0.2-0.4,0.2-0.6C25.1,12.2,24.7,11.8,24.2,11.8"/>
<path class="st0" d="M15.4,50c-1.3,0-2.3-1-2.3-2.3c0-0.6,0.2-1.2,0.7-1.6l0.1-0.1l8.7-8.7l0.1-0.1c0.4-0.3,0.9-0.5,1.4-0.5
	c1.3,0,2.3,1,2.3,2.3c0,0.5-0.2,1-0.5,1.4l-0.1,0.1l-8.7,8.7l-0.1,0.1c-0.2,0.2-0.4,0.3-0.6,0.4C16.2,49.9,15.8,50,15.4,50"/>
<path class="st0" d="M24.2,38c-0.2,0-0.4,0.1-0.6,0.2l-8.7,8.7l0,0c-0.2,0.2-0.4,0.4-0.4,0.8c0,0.5,0.4,1,1,1c0.3,0,0.6-0.2,0.8-0.4
	l0,0l8.7-8.7c0.1-0.2,0.2-0.4,0.2-0.6C25.1,38.4,24.7,38,24.2,38"/>
<path class="st0" d="M41.6,23.8c-0.5,0-1-0.2-1.4-0.5l-0.1-0.1l-8.7-8.7l-0.1-0.1c-0.2-0.2-0.3-0.4-0.4-0.6c-0.2-0.3-0.3-0.7-0.3-1
	c0-1.3,1-2.3,2.3-2.3c0.6,0,1.2,0.2,1.6,0.7l0.1,0.1l8.7,8.7l0.1,0.1c0.3,0.4,0.5,0.9,0.5,1.4C43.9,22.8,42.9,23.8,41.6,23.8"/>
<path class="st0" d="M42.6,21.5c0-0.2-0.1-0.4-0.2-0.6l-8.7-8.7l0,0c-0.2-0.2-0.4-0.4-0.8-0.4c-0.5,0-1,0.4-1,1
	c0,0.3,0.2,0.6,0.4,0.8l0,0l8.7,8.7c0.2,0.1,0.4,0.2,0.6,0.2C42.2,22.5,42.6,22,42.6,21.5"/>
<path class="st0" d="M41.6,23.8c-1.3,0-2.3-1-2.3-2.3c0-0.5,0.2-1,0.5-1.4l0.1-0.1l8.7-8.7l0.1-0.1c0.2-0.2,0.4-0.3,0.6-0.4
	c0.3-0.2,0.7-0.3,1-0.3c1.3,0,2.3,1,2.3,2.3c0,0.6-0.2,1.2-0.7,1.6l-0.1,0.1l-8.7,8.7L43,23.3C42.6,23.6,42.1,23.8,41.6,23.8"/>
<path class="st0" d="M41.6,22.5c0.2,0,0.4-0.1,0.6-0.2l8.7-8.7l0,0c0.2-0.2,0.4-0.4,0.4-0.8c0-0.5-0.4-1-1-1c-0.3,0-0.6,0.2-0.8,0.4
	l0,0l-8.7,8.7c-0.1,0.2-0.2,0.4-0.2,0.6C40.6,22,41.1,22.5,41.6,22.5"/>
<path class="st0" d="M50.3,15.1c-1.3,0-2.3-1-2.3-2.3c0-0.5,0.2-1,0.5-1.4l0.1-0.1l8.7-8.7l0.1-0.1C57.6,2.3,57.8,2.1,58,2
	c0.3-0.2,0.7-0.3,1-0.3c1.3,0,2.3,1,2.3,2.3c0,0.6-0.2,1.2-0.7,1.6l-0.1,0.1l-8.7,8.7l-0.1,0.1C51.3,14.9,50.8,15.1,50.3,15.1"/>
<path class="st0" d="M50.3,13.7c0.2,0,0.4-0.1,0.6-0.2l8.7-8.7l0,0C59.9,4.6,60,4.4,60,4.1c0-0.5-0.4-1-1-1c-0.3,0-0.6,0.2-0.8,0.4
	l0,0l-8.7,8.7c-0.1,0.2-0.2,0.4-0.2,0.6C49.4,13.3,49.8,13.7,50.3,13.7"/>
<path class="st0" d="M41.6,15.1c-1.3,0-2.3-1-2.3-2.3c0-0.9-0.2-1.7-0.5-2.5c-0.3-0.8-0.8-1.5-1.4-2c-0.6-0.6-1.3-1.1-2-1.4
	c-0.8-0.3-1.6-0.5-2.5-0.5c-1.3,0-2.3-1-2.3-2.3s1-2.3,2.3-2.3c1.5,0,2.9,0.3,4.3,0.9C38.5,3.2,39.7,4,40.7,5c1,1,1.8,2.2,2.4,3.5
	c0.6,1.4,0.9,2.8,0.9,4.3C43.9,14,42.9,15.1,41.6,15.1"/>
<path class="st0" d="M32.9,3.1c-0.5,0-1,0.4-1,1c0,0.5,0.4,1,1,1c4.3,0,7.8,3.5,7.8,7.8c0,0.5,0.4,1,1,1c0.5,0,1-0.4,1-1
	C42.6,7.4,38.3,3.1,32.9,3.1"/>
<path class="st0" d="M32.9,23.8c-1.5,0-2.9-0.3-4.3-0.9c-1.3-0.6-2.5-1.4-3.5-2.4c-1-1-1.8-2.2-2.4-3.5c-0.6-1.4-0.9-2.8-0.9-4.3
	c0-1.3,1-2.3,2.3-2.3c1.3,0,2.3,1,2.3,2.3c0,0.9,0.2,1.7,0.5,2.5c0.3,0.8,0.8,1.5,1.4,2c0.6,0.6,1.3,1.1,2,1.4
	c0.8,0.3,1.6,0.5,2.5,0.5c1.3,0,2.3,1,2.3,2.3C35.2,22.8,34.1,23.8,32.9,23.8"/>
<path class="st0" d="M32.9,20.5c-4.3,0-7.8-3.5-7.8-7.8c0-0.5-0.4-1-1-1c-0.5,0-1,0.4-1,1c0,5.4,4.3,9.7,9.7,9.7c0.5,0,1-0.4,1-1
	S33.4,20.5,32.9,20.5"/>
<path class="st0" d="M24.1,15.1c-1.3,0-2.3-1-2.3-2.3c0-1.5,0.3-2.9,0.9-4.3C23.3,7.2,24.1,6,25.1,5c1-1,2.2-1.8,3.5-2.4
	c1.4-0.6,2.8-0.9,4.3-0.9c1.3,0,2.3,1,2.3,2.3c0,1.3-1,2.3-2.3,2.3c-0.9,0-1.7,0.2-2.5,0.5c-0.8,0.3-1.5,0.8-2,1.4
	c-0.6,0.6-1.1,1.3-1.4,2c-0.3,0.8-0.5,1.6-0.5,2.5C26.4,14,25.4,15.1,24.1,15.1"/>
<path class="st0" d="M67.8,50c-1.3,0-2.3-1-2.3-2.3c0-1.3,1-2.3,2.3-2.3c1.3,0,2.3,1,2.3,2.3C70.1,48.9,69,50,67.8,50"/>
<path class="st0" d="M67.8,46.7c0.5,0,1,0.4,1,1c0,0.5-0.4,1-1,1c-0.5,0-1-0.4-1-1C66.8,47.1,67.2,46.7,67.8,46.7"/>
<path class="st0" d="M7.7,58.4c0.3,0,0.4,0.3,0.4,0.6c0,0.3-0.2,0.6-0.4,0.6H6.2v5.9c0,0.3-0.3,0.4-0.7,0.4c-0.3,0-0.7-0.1-0.7-0.4
	v-5.9H3.3c-0.3,0-0.4-0.3-0.4-0.6c0-0.3,0.1-0.6,0.4-0.6H7.7z"/>
<path class="st0" d="M12.5,62.6h-2.3v3c0,0.3-0.3,0.4-0.7,0.4c-0.3,0-0.7-0.1-0.7-0.4v-6.7c0-0.3,0.3-0.4,0.7-0.4
	c0.3,0,0.7,0.1,0.7,0.4v2.7h2.3v-2.7c0-0.3,0.3-0.4,0.7-0.4c0.3,0,0.7,0.1,0.7,0.4v6.7c0,0.3-0.3,0.4-0.7,0.4
	c-0.3,0-0.7-0.1-0.7-0.4V62.6z"/>
<path class="st0" d="M16.5,61.7H18c0.3,0,0.4,0.3,0.4,0.5c0,0.2-0.1,0.5-0.4,0.5h-1.6v2.1h2.9c0.3,0,0.4,0.3,0.4,0.6
	c0,0.3-0.1,0.6-0.4,0.6h-3.7c-0.3,0-0.6-0.1-0.6-0.4v-6.7c0-0.3,0.3-0.4,0.6-0.4h3.7c0.3,0,0.4,0.3,0.4,0.6c0,0.3-0.2,0.6-0.4,0.6
	h-2.9V61.7z"/>
<path class="st0" d="M26.1,63.3c-0.1,0.2-0.3,0.3-0.5,0.3c-0.2,0-0.3-0.1-0.4-0.3L24,61v4.5c0,0.3-0.3,0.4-0.7,0.4
	c-0.3,0-0.7-0.1-0.7-0.4v-6.5c0-0.5,0.3-0.7,0.7-0.7c0.5,0,0.7,0.1,1,0.7l1.3,2.3l1.3-2.3c0.3-0.6,0.6-0.7,1.1-0.7
	c0.3,0,0.7,0.2,0.7,0.7v6.5c0,0.3-0.3,0.4-0.7,0.4c-0.3,0-0.7-0.1-0.7-0.4v-4.5L26.1,63.3z"/>
<path class="st0" d="M33.4,60.8c0-0.8-0.4-1.2-1.1-1.2c-0.7,0-1.1,0.4-1.1,1.2v2.9c0,0.8,0.4,1.2,1.1,1.2c0.7,0,1.1-0.4,1.1-1.2
	V60.8z M29.9,63.7v-2.9c0-1.7,1.1-2.4,2.4-2.4s2.4,0.6,2.4,2.4v2.9c0,1.7-1.1,2.4-2.4,2.4S29.9,65.4,29.9,63.7"/>
<path class="st0" d="M35.4,59.1l0-0.1c0-0.3,0.5-0.6,0.9-0.6c0.2,0,0.4,0.1,0.5,0.3l1.6,5.6l1.6-5.6c0.1-0.2,0.2-0.3,0.5-0.3
	c0.4,0,0.9,0.2,0.9,0.6l0,0.1l-2,6.5c-0.1,0.3-0.5,0.5-0.9,0.5c-0.4,0-0.8-0.1-0.9-0.5L35.4,59.1z"/>
<path class="st0" d="M43.2,61.7h1.6c0.3,0,0.4,0.3,0.4,0.5c0,0.2-0.1,0.5-0.4,0.5h-1.6v2.1h2.9c0.3,0,0.4,0.3,0.4,0.6
	c0,0.3-0.1,0.6-0.4,0.6h-3.7c-0.3,0-0.6-0.1-0.6-0.4v-6.7c0-0.3,0.3-0.4,0.6-0.4h3.7c0.3,0,0.4,0.3,0.4,0.6c0,0.3-0.2,0.6-0.4,0.6
	h-2.9V61.7z"/>
<path class="st0" d="M50.8,63.3c-0.1,0.2-0.3,0.3-0.5,0.3c-0.2,0-0.3-0.1-0.4-0.3L48.7,61v4.5c0,0.3-0.3,0.4-0.7,0.4
	c-0.3,0-0.7-0.1-0.7-0.4v-6.5c0-0.5,0.3-0.7,0.7-0.7c0.5,0,0.7,0.1,1,0.7l1.3,2.3l1.3-2.3c0.3-0.6,0.6-0.7,1.1-0.7
	c0.3,0,0.7,0.2,0.7,0.7v6.5c0,0.3-0.3,0.4-0.7,0.4c-0.3,0-0.7-0.1-0.7-0.4v-4.5L50.8,63.3z"/>
<path class="st0" d="M56,61.7h1.6c0.3,0,0.4,0.3,0.4,0.5c0,0.2-0.1,0.5-0.4,0.5H56v2.1h2.9c0.3,0,0.4,0.3,0.4,0.6
	c0,0.3-0.1,0.6-0.4,0.6h-3.7c-0.3,0-0.6-0.1-0.6-0.4v-6.7c0-0.3,0.3-0.4,0.6-0.4h3.7c0.3,0,0.4,0.3,0.4,0.6c0,0.3-0.2,0.6-0.4,0.6
	H56V61.7z"/>
<path class="st0" d="M63.7,65.6l-2.2-4.2v4.2c0,0.3-0.3,0.4-0.7,0.4c-0.3,0-0.7-0.1-0.7-0.4v-6.7c0-0.3,0.3-0.4,0.7-0.4
	c0.5,0,0.7,0.1,1,0.7l2,3.9v-4.2c0-0.3,0.3-0.4,0.7-0.4c0.3,0,0.7,0.1,0.7,0.4v6.7c0,0.3-0.3,0.4-0.7,0.4
	C64.1,66,63.9,65.9,63.7,65.6"/>
<path class="st0" d="M70.7,58.4c0.3,0,0.4,0.3,0.4,0.6c0,0.3-0.2,0.6-0.4,0.6h-1.5v5.9c0,0.3-0.3,0.4-0.7,0.4
	c-0.3,0-0.7-0.1-0.7-0.4v-5.9h-1.5c-0.3,0-0.4-0.3-0.4-0.6c0-0.3,0.1-0.6,0.4-0.6H70.7z"/>
</svg>
