<?xml version="1.0" encoding="utf-8"?>
<!-- Generator: Adobe Illustrator 20.1.0, SVG Export Plug-In . SVG Version: 6.00 Build 0)  -->
<svg version="1.1" id="Layer_1" xmlns="http://www.w3.org/2000/svg" xmlns:xlink="http://www.w3.org/1999/xlink" x="0px" y="0px"
	 viewBox="0 0 326 48.2" style="enable-background:new 0 0 326 48.2;" xml:space="preserve">
<style type="text/css">
	.st0{fill:#213040;}
</style>
<g>
	<path class="st0" d="M108.5,28.7c-2.5,0-4.5-2-4.5-4.5s2-4.5,4.5-4.5h17.1c2.5,0,4.5,2,4.5,4.5s-2,4.5-4.5,4.5H108.5z"/>
	<path class="st0" d="M125.6,45.8c2.5,0,4.5-2,4.5-4.5s-2-4.5-4.5-4.5h-17.1c-2.5,0-4.5,2-4.5,4.5s2,4.5,4.5,4.5H125.6z"/>
	<path class="st0" d="M10.7,41.3V24.2c0-2.5-2-4.5-4.5-4.5c-2.5,0-4.5,2-4.5,4.5v17.1c0,2.5,2,4.5,4.5,4.5
		C8.7,45.8,10.7,43.7,10.7,41.3z"/>
	<path class="st0" d="M27.8,24.2c0-1.2-0.5-2.4-1.3-3.2c0,0-0.1-0.1-0.1-0.1L9.2,3.8C9.1,3.7,9,3.7,8.9,3.6C8.1,3,7.2,2.7,6.2,2.7
		c-2.5,0-4.5,2-4.5,4.5c0,1,0.3,1.9,0.9,2.7c0.1,0.1,0.1,0.2,0.2,0.3l17,17.1c0,0,0.1,0.1,0.1,0.1c0.3,0.4,0.7,0.6,1.2,0.9
		c0.6,0.3,1.3,0.5,2,0.5C25.7,28.7,27.8,26.7,27.8,24.2z"/>
	<path class="st0" d="M125.6,2.7h-17.1c-1.3,0-2.5,0.5-3.3,1.4c0,0-0.1,0.1-0.1,0.1L88.3,21.1c0,0-0.1,0.1-0.1,0.1L74.4,34.9
		L60.7,21.2c0,0-0.1-0.1-0.1-0.1c-0.8-0.9-2-1.3-3.2-1.3c-2.5,0-4.5,2-4.5,4.5c0,0.7,0.2,1.4,0.5,2c0.2,0.4,0.5,0.8,0.9,1.2
		c0,0.1,0.1,0.1,0.1,0.2L71,44.1c0.6,0.8,1.5,1.3,2.5,1.5c0,0,0,0,0.1,0c0,0,0,0,0,0c0,0,0.1,0,0.1,0c0,0,0,0,0,0
		c0.3,0,0.5,0.1,0.8,0.1c1.4,0,2.6-0.6,3.5-1.6l16.6-16.6c0,0,0.1-0.1,0.1-0.1c0.1-0.1,0.3-0.3,0.4-0.4l15.3-15.3h15.2
		c2.5,0,4.5-2,4.5-4.5C130.1,4.7,128.1,2.7,125.6,2.7z"/>
	<path class="st0" d="M77.3,15.8c-1.1-2.6-2.6-4.9-4.6-6.8c-2-2-4.3-3.5-6.8-4.6c-2.7-1.1-5.5-1.7-8.4-1.7c0,0,0,0-0.1,0
		c0,0,0,0-0.1,0c-2.9,0-5.7,0.6-8.4,1.7C46.4,5.4,44.1,7,42.1,9c-2,2-3.5,4.3-4.6,6.8c-0.9,2.1-1.4,4.3-1.6,6.5L20.2,37.9
		c0,0-0.1,0.1-0.1,0.1c-0.9,0.8-1.3,2-1.3,3.2c0,2.5,2,4.5,4.5,4.5c0.7,0,1.4-0.2,2-0.5c0.4-0.2,0.8-0.5,1.2-0.9
		c0.1,0,0.1-0.1,0.2-0.1l11.1-11.1c1.1,2.4,2.5,4.5,4.4,6.3c2,2,4.3,3.5,6.8,4.6c2.7,1.1,5.5,1.7,8.4,1.7c2.5,0,4.5-2,4.5-4.5
		c0-2.5-2-4.5-4.5-4.5c-1.7,0-3.3-0.3-4.9-1c-1.5-0.6-2.8-1.5-4-2.7c-1.2-1.2-2.1-2.5-2.7-4c-0.6-1.4-0.9-2.9-1-4.5
		c0-0.1,0-0.3,0-0.4c0-0.1,0-0.3,0-0.4c0-1.6,0.4-3.1,1-4.5c0.6-1.5,1.5-2.8,2.7-4c1.2-1.2,2.5-2.1,4-2.7c1.5-0.7,3.2-1,4.9-1
		c0,0,0,0,0.1,0c0,0,0,0,0.1,0c1.7,0,3.3,0.3,4.9,1c1.5,0.6,2.8,1.5,4,2.7c1.2,1.2,2.1,2.5,2.7,4c0.7,1.5,1,3.2,1,4.9
		c0,2.5,2,4.5,4.5,4.5c2.5,0,4.5-2,4.5-4.5C79,21.3,78.4,18.5,77.3,15.8z"/>
	<path class="st0" d="M175.8,45.8c-2.5,0-4.5-2-4.5-4.5c0-2.5,2-4.5,4.5-4.5h17.1c2.5,0,4.5,2,4.5,4.5c0,2.5-2,4.5-4.5,4.5H175.8z"
		/>
	<path class="st0" d="M248.6,41.3V24.2c0-2.5-2-4.5-4.5-4.5s-4.5,2-4.5,4.5v17.1c0,2.5,2,4.5,4.5,4.5S248.6,43.7,248.6,41.3z"/>
	<path class="st0" d="M231.5,41.3C231.5,41.3,231.5,41.2,231.5,41.3l0-17.1c0-2.5-2-4.5-4.5-4.5s-4.5,2-4.5,4.5v6.2L196.1,4
		c0,0,0,0-0.1-0.1c-0.7-0.7-1.6-1.1-2.5-1.2c0,0,0,0,0,0c0,0-0.1,0-0.1,0c0,0,0,0,0,0c0,0,0,0-0.1,0c0,0,0,0-0.1,0c0,0,0,0,0,0
		c-0.1,0-0.2,0-0.3,0h-17.1c-2.5,0-4.5,2-4.5,4.5c0,2.5,2,4.5,4.5,4.5H191l32.8,32.8c0,0,0,0,0.1,0.1c0.7,0.7,1.5,1.1,2.4,1.2
		c0,0,0,0,0,0c0,0,0.1,0,0.1,0c0,0,0,0,0,0c0,0,0,0,0.1,0c0,0,0,0,0.1,0c0,0,0,0,0,0c0,0,0,0,0.1,0c0,0,0,0,0,0c0.1,0,0.2,0,0.3,0
		c2,0,3.7-1.3,4.3-3.1C231.4,42.3,231.5,41.8,231.5,41.3z"/>
	<path class="st0" d="M227.1,11.7h34.1c0,0,0.1,0,0.1,0c1.5,0,2.8-0.8,3.7-2c1-1.5,1-3.5-0.1-5c-0.8-1.2-2.2-1.9-3.7-1.9
		c0,0-34.1,0-34.1,0c0,0-0.1,0-0.1,0c-1.5,0-2.8,0.8-3.6,2c-1,1.5-1,3.5,0,5c0.8,1.2,2.2,1.9,3.6,2C226.9,11.7,227,11.7,227.1,11.7
		C227,11.7,227,11.7,227.1,11.7z"/>
	<path class="st0" d="M146.2,41.3V24.2c0-2.5-2-4.5-4.5-4.5c-2.5,0-4.5,2-4.5,4.5v17.1c0,2.5,2,4.5,4.5,4.5
		C144.2,45.8,146.2,43.7,146.2,41.3z"/>
	<path class="st0" d="M163.3,24.2c0-1.2-0.5-2.4-1.3-3.2c0,0-0.1-0.1-0.1-0.1L144.7,3.8c-0.1-0.1-0.2-0.2-0.3-0.2
		c-0.8-0.6-1.7-0.9-2.7-0.9c-2.5,0-4.5,2-4.5,4.5c0,1,0.3,1.9,0.9,2.7c0.1,0.1,0.1,0.2,0.2,0.3l17,17.1c0,0,0.1,0.1,0.1,0.1
		c0.3,0.4,0.7,0.6,1.2,0.9c0.6,0.3,1.3,0.5,2,0.5C161.3,28.7,163.3,26.7,163.3,24.2z"/>
	<path class="st0" d="M192.9,19.7h-17.1c-1.4,0-2.6,0.6-3.5,1.6l-16.6,16.6c0,0-0.1,0.1-0.1,0.1c-0.9,0.8-1.3,2-1.3,3.2
		c0,2.5,2,4.5,4.5,4.5c0.7,0,1.4-0.2,2-0.5c0.4-0.2,0.8-0.5,1.2-0.9c0.1,0,0.1-0.1,0.2-0.1l15.5-15.6h15.2c2.5,0,4.5-2,4.5-4.5
		S195.4,19.7,192.9,19.7z"/>
	<circle class="st0" cx="261.1" cy="41.3" r="4.5"/>
</g>
<path class="st0" d="M292.4,2.6c0.5,0,0.8,0.6,0.8,1.1c0,0.6-0.3,1.2-0.8,1.2h-2.3v8.9c0,0.5-0.6,0.8-1.3,0.8
	c-0.6,0-1.3-0.3-1.3-0.8V4.9h-2.3c-0.5,0-0.8-0.5-0.8-1.2c0-0.5,0.2-1.1,0.8-1.1H292.4z"/>
<path class="st0" d="M300,9.3h-3.3v4.4c0,0.5-0.6,0.8-1.3,0.8c-0.6,0-1.3-0.3-1.3-0.8V3.3c0-0.5,0.6-0.8,1.3-0.8
	c0.6,0,1.3,0.2,1.3,0.8v4h3.3v-4c0-0.5,0.6-0.8,1.3-0.8c0.6,0,1.3,0.2,1.3,0.8v10.4c0,0.5-0.6,0.8-1.3,0.8c-0.6,0-1.3-0.3-1.3-0.8
	V9.3z"/>
<path class="st0" d="M306.9,7.6h2.5c0.5,0,0.8,0.5,0.8,1c0,0.4-0.2,1-0.8,1h-2.5v2.8h4.4c0.5,0,0.8,0.5,0.8,1.1
	c0,0.5-0.2,1.1-0.8,1.1h-5.8c-0.6,0-1.1-0.3-1.1-0.8V3.3c0-0.5,0.6-0.8,1.1-0.8h5.8c0.5,0,0.8,0.6,0.8,1.1c0,0.6-0.3,1.1-0.8,1.1
	h-4.4V7.6z"/>
<path class="st0" d="M291.1,26c-0.2,0.4-0.5,0.5-0.9,0.5c-0.3,0-0.6-0.1-0.8-0.5l-1.6-2.9v6.3c0,0.5-0.6,0.8-1.3,0.8
	c-0.6,0-1.3-0.3-1.3-0.8v-9.9c0-0.9,0.6-1.3,1.3-1.3c0.9,0,1.3,0.1,2,1.3l1.7,2.9l1.7-2.9c0.7-1.2,1.1-1.3,2-1.3
	c0.7,0,1.3,0.3,1.3,1.3v9.9c0,0.5-0.6,0.8-1.3,0.8c-0.6,0-1.3-0.3-1.3-0.8v-6.1L291.1,26z"/>
<path class="st0" d="M296.8,26.5v-4.3c0-2.8,1.8-3.9,4-3.9c2.3,0,4,1,4,3.9v4.3c0,2.8-1.8,3.9-4,3.9
	C298.6,30.3,296.8,29.3,296.8,26.5z M302.3,22.1c0-1.1-0.6-1.6-1.5-1.6c-0.9,0-1.5,0.5-1.5,1.6v4.3c0,1.1,0.5,1.6,1.5,1.6
	c0.9,0,1.5-0.5,1.5-1.6V22.1z"/>
<path class="st0" d="M305.7,19.5c0-0.1,0-0.1,0-0.2c0-0.6,0.9-1,1.6-1c0.4,0,0.7,0.1,0.8,0.5l2.3,8.4l2.3-8.4
	c0.1-0.3,0.4-0.5,0.8-0.5c0.7,0,1.6,0.4,1.6,1c0,0,0,0.1,0,0.2l-3,10c-0.2,0.6-0.9,0.9-1.7,0.9c-0.8,0-1.5-0.3-1.7-0.9L305.7,19.5z"
	/>
<path class="st0" d="M318.7,23.2h2.5c0.5,0,0.8,0.5,0.8,1c0,0.4-0.2,1-0.8,1h-2.5V28h4.4c0.5,0,0.8,0.5,0.8,1.1
	c0,0.5-0.2,1.1-0.8,1.1h-5.8c-0.6,0-1.1-0.3-1.1-0.8V19c0-0.5,0.6-0.8,1.1-0.8h5.8c0.5,0,0.8,0.6,0.8,1.1c0,0.6-0.3,1.1-0.8,1.1
	h-4.4V23.2z"/>
<path class="st0" d="M291.1,41.7c-0.2,0.4-0.5,0.5-0.9,0.5c-0.3,0-0.6-0.1-0.8-0.5l-1.6-2.9v6.3c0,0.5-0.6,0.8-1.3,0.8
	c-0.6,0-1.3-0.3-1.3-0.8v-9.9c0-0.9,0.6-1.3,1.3-1.3c0.9,0,1.3,0.1,2,1.3l1.7,2.9l1.7-2.9c0.7-1.2,1.1-1.3,2-1.3
	c0.7,0,1.3,0.3,1.3,1.3v9.9c0,0.5-0.6,0.8-1.3,0.8c-0.6,0-1.3-0.3-1.3-0.8V39L291.1,41.7z"/>
<path class="st0" d="M299.5,38.9h2.5c0.5,0,0.8,0.5,0.8,1c0,0.4-0.2,1-0.8,1h-2.5v2.8h4.4c0.5,0,0.8,0.5,0.8,1.1
	c0,0.5-0.2,1.1-0.8,1.1h-5.8c-0.6,0-1.1-0.3-1.1-0.8V34.7c0-0.5,0.6-0.8,1.1-0.8h5.8c0.5,0,0.8,0.6,0.8,1.1c0,0.6-0.3,1.1-0.8,1.1
	h-4.4V38.9z"/>
<path class="st0" d="M311.5,45.2l-3.1-5.7v5.6c0,0.5-0.6,0.8-1.3,0.8c-0.6,0-1.3-0.3-1.3-0.8V34.7c0-0.5,0.6-0.8,1.3-0.8
	c0.9,0,1.3,0.1,1.9,1.3l2.7,5.1v-5.6c0-0.5,0.6-0.8,1.3-0.8c0.6,0,1.3,0.2,1.3,0.8v10.4c0,0.5-0.6,0.8-1.3,0.8
	C312.3,45.9,311.8,45.8,311.5,45.2z"/>
<path class="st0" d="M323,33.9c0.5,0,0.8,0.6,0.8,1.1c0,0.6-0.3,1.2-0.8,1.2h-2.3v8.9c0,0.5-0.6,0.8-1.3,0.8c-0.6,0-1.3-0.3-1.3-0.8
	v-8.9H316c-0.5,0-0.8-0.5-0.8-1.2c0-0.5,0.2-1.1,0.8-1.1H323z"/>
</svg>
