<?xml version="1.0" encoding="utf-8"?>
<!-- Generator: Adobe Illustrator 20.1.0, SVG Export Plug-In . SVG Version: 6.00 Build 0)  -->
<svg version="1.1" id="Layer_1" xmlns="http://www.w3.org/2000/svg" xmlns:xlink="http://www.w3.org/1999/xlink" x="0px" y="0px"
	 viewBox="0 0 155.9 28.4" style="enable-background:new 0 0 155.9 28.4;" xml:space="preserve">
<style type="text/css">
	.st0{fill:#213040;}
</style>
<path class="st0" d="M101.1,8c-1.3,0-2.4-1.1-2.4-2.4s1.1-2.4,2.4-2.4h9.2c1.3,0,2.4,1.1,2.4,2.4S111.7,8,110.3,8H101.1z"/>
<path class="st0" d="M101.1,6.6h9.2c0.6,0,1-0.5,1-1c0-0.6-0.5-1-1-1h-9.2c-0.6,0-1,0.5-1,1C100.1,6.1,100.6,6.6,101.1,6.6"/>
<path class="st0" d="M101.1,17.2c-1.3,0-2.4-1.1-2.4-2.4s1.1-2.4,2.4-2.4h9.2c1.3,0,2.4,1.1,2.4,2.4s-1.1,2.4-2.4,2.4H101.1z"/>
<path class="st0" d="M101.1,15.8h9.2c0.6,0,1-0.5,1-1c0-0.6-0.5-1-1-1h-9.2c-0.6,0-1,0.5-1,1C100.1,15.3,100.6,15.8,101.1,15.8"/>
<path class="st0" d="M101.1,26.4c-1.3,0-2.4-1.1-2.4-2.4s1.1-2.4,2.4-2.4h9.2c1.3,0,2.4,1.1,2.4,2.4c0,1.3-1.1,2.4-2.4,2.4H101.1z"
	/>
<path class="st0" d="M101.1,25h9.2c0.6,0,1-0.5,1-1c0-0.6-0.5-1-1-1h-9.2c-0.6,0-1,0.5-1,1C100.1,24.5,100.6,25,101.1,25"/>
<path class="st0" d="M64.3,8c-1.3,0-2.4-1.1-2.4-2.4s1.1-2.4,2.4-2.4h9.2c1.3,0,2.4,1.1,2.4,2.4S74.9,8,73.5,8H64.3z"/>
<path class="st0" d="M64.3,6.6h9.2c0.6,0,1-0.5,1-1c0-0.6-0.5-1-1-1h-9.2c-0.6,0-1,0.5-1,1C63.3,6.1,63.8,6.6,64.3,6.6"/>
<path class="st0" d="M64.3,17.2c-1.3,0-2.4-1.1-2.4-2.4s1.1-2.4,2.4-2.4h9.2c1.3,0,2.4,1.1,2.4,2.4s-1.1,2.4-2.4,2.4H64.3z"/>
<path class="st0" d="M64.3,15.8h9.2c0.6,0,1-0.5,1-1c0-0.6-0.5-1-1-1h-9.2c-0.6,0-1,0.5-1,1C63.3,15.3,63.8,15.8,64.3,15.8"/>
<path class="st0" d="M64.3,26.4c-1.3,0-2.4-1.1-2.4-2.4s1.1-2.4,2.4-2.4h9.2c1.3,0,2.4,1.1,2.4,2.4c0,1.3-1.1,2.4-2.4,2.4H64.3z"/>
<path class="st0" d="M64.3,25h9.2c0.6,0,1-0.5,1-1c0-0.6-0.5-1-1-1h-9.2c-0.6,0-1,0.5-1,1C63.3,24.5,63.8,25,64.3,25"/>
<path class="st0" d="M9.1,26.4c-1.3,0-2.4-1.1-2.4-2.4v-9.2c0-1.3,1.1-2.4,2.4-2.4s2.4,1.1,2.4,2.4V24C11.5,25.3,10.4,26.4,9.1,26.4
	"/>
<path class="st0" d="M9.1,25c0.6,0,1-0.5,1-1v-9.2c0-0.6-0.5-1-1-1s-1,0.5-1,1V24C8.1,24.5,8.5,25,9.1,25"/>
<path class="st0" d="M138,26.4c-1.3,0-2.4-1.1-2.4-2.4v-9.2c0-1.3,1.1-2.4,2.4-2.4s2.4,1.1,2.4,2.4V24
	C140.4,25.3,139.3,26.4,138,26.4"/>
<path class="st0" d="M138,13.7c-0.6,0-1,0.5-1,1V24c0,0.6,0.5,1,1,1s1-0.5,1-1v-9.2C139,14.2,138.5,13.7,138,13.7"/>
<path class="st0" d="M128.8,26.4c-1.3,0-2.4-1.1-2.4-2.4v-9.2c0-1.3,1.1-2.4,2.4-2.4c1.3,0,2.4,1.1,2.4,2.4V24
	C131.2,25.3,130.1,26.4,128.8,26.4"/>
<path class="st0" d="M128.8,13.7c-0.6,0-1,0.5-1,1V24c0,0.6,0.5,1,1,1s1-0.5,1-1v-9.2C129.8,14.2,129.3,13.7,128.8,13.7"/>
<path class="st0" d="M128.8,26.4c-0.6,0-1.2-0.2-1.7-0.7l0,0L108.6,7.3l-0.1-0.1c-0.4-0.5-0.7-1-0.7-1.7c0-1.3,1.1-2.4,2.4-2.4
	c0.6,0,1.2,0.2,1.7,0.7l0,0l18.4,18.4c0.5,0.5,0.7,1.1,0.7,1.7C131.2,25.3,130.1,26.4,128.8,26.4"/>
<path class="st0" d="M109.6,6.3L109.6,6.3L109.6,6.3L128,24.7h0c0.2,0.2,0.4,0.3,0.7,0.3c0.6,0,1-0.5,1-1c0-0.3-0.1-0.5-0.3-0.7
	L111.1,4.8v0c-0.2-0.2-0.4-0.3-0.7-0.3c-0.6,0-1,0.5-1,1C109.3,5.8,109.4,6.1,109.6,6.3L109.6,6.3z"/>
<path class="st0" d="M128.8,8L128.8,8c-0.8,0-1.6-0.4-2-1.1c-0.6-0.8-0.6-1.9,0-2.7c0.4-0.7,1.2-1.1,2-1.1l0.1,0h18.4
	c0.8,0,1.5,0.4,2,1.1c0.6,0.8,0.6,1.9,0,2.7c-0.4,0.7-1.2,1.1-2,1.1l0,0H128.8L128.8,8z"/>
<path class="st0" d="M128.8,6.6L128.8,6.6L128.8,6.6h18.4v0c0.3,0,0.7-0.2,0.9-0.5c0.2-0.3,0.2-0.8,0-1.1c-0.2-0.3-0.5-0.4-0.8-0.4
	l-18.4,0c-0.3,0-0.6,0.2-0.9,0.5c-0.2,0.3-0.2,0.8,0,1.1C128.1,6.4,128.4,6.6,128.8,6.6z"/>
<path class="st0" d="M18.3,17.2c-0.4,0-0.8-0.1-1.1-0.3c-0.2-0.1-0.5-0.3-0.6-0.5l-0.1-0.1L7.3,7.2L7.2,7C6.9,6.6,6.7,6.1,6.7,5.6
	c0-1.3,1.1-2.4,2.4-2.4c0.5,0,1,0.2,1.5,0.5l0.1,0.1l9.2,9.2L20,13c0.5,0.5,0.7,1.1,0.7,1.7C20.7,16.1,19.6,17.2,18.3,17.2"/>
<path class="st0" d="M17.5,15.4L17.5,15.4c0.2,0.2,0.5,0.4,0.8,0.4c0.6,0,1-0.5,1-1c0-0.3-0.2-0.6-0.4-0.8l0,0L9.7,4.8
	C9.6,4.6,9.3,4.5,9.1,4.5c-0.6,0-1,0.5-1,1c0,0.2,0.1,0.4,0.2,0.6L17.5,15.4z"/>
<path class="st0" d="M82.7,26.4c-1.3,0-2.4-1.1-2.4-2.4v-9.2c0-1.3,1.1-2.4,2.4-2.4c1.3,0,2.4,1.1,2.4,2.4V24
	C85.2,25.3,84.1,26.4,82.7,26.4"/>
<path class="st0" d="M82.7,25c0.6,0,1-0.5,1-1v-9.2c0-0.6-0.5-1-1-1s-1,0.5-1,1V24C81.7,24.5,82.2,25,82.7,25"/>
<path class="st0" d="M91.9,17.2c-0.4,0-0.8-0.1-1.1-0.3c-0.2-0.1-0.4-0.3-0.6-0.5l-0.1-0.1l-9.2-9.2L80.8,7
	c-0.3-0.4-0.5-0.9-0.5-1.5c0-1.3,1.1-2.4,2.4-2.4c0.5,0,1,0.2,1.5,0.5l0.1,0.1l9.2,9.2l0.1,0.1c0.5,0.5,0.7,1.1,0.7,1.7
	C94.4,16.1,93.3,17.2,91.9,17.2"/>
<path class="st0" d="M91.1,15.4L91.1,15.4c0.2,0.2,0.5,0.4,0.8,0.4c0.6,0,1-0.5,1-1c0-0.3-0.2-0.6-0.4-0.8l0,0l-9.2-9.2
	c-0.2-0.1-0.4-0.2-0.6-0.2c-0.6,0-1,0.5-1,1c0,0.2,0.1,0.4,0.2,0.6L91.1,15.4z"/>
<path class="st0" d="M18.3,26.4c-1.3,0-2.4-1.1-2.4-2.4c0-0.7,0.3-1.3,0.7-1.7l0.1-0.1l9.2-9.2l0.1-0.1c0.4-0.3,0.9-0.5,1.5-0.5
	c1.3,0,2.4,1.1,2.4,2.4c0,0.5-0.2,1-0.5,1.5l-0.1,0.1l-9.2,9.2L20,25.7c-0.2,0.2-0.4,0.3-0.6,0.5C19.1,26.3,18.7,26.4,18.3,26.4"/>
<path class="st0" d="M27.5,13.7c-0.2,0-0.4,0.1-0.6,0.2l-9.2,9.2l0,0c-0.2,0.2-0.4,0.5-0.4,0.8c0,0.6,0.5,1,1,1
	c0.3,0,0.6-0.2,0.8-0.4l0,0l9.2-9.2c0.1-0.2,0.2-0.4,0.2-0.6C28.5,14.2,28.1,13.7,27.5,13.7"/>
<path class="st0" d="M91.9,26.4c-1.3,0-2.4-1.1-2.4-2.4c0-0.7,0.3-1.3,0.7-1.7l0.1-0.1l9.2-9.2l0.1-0.1c0.4-0.3,0.9-0.5,1.5-0.5
	c1.3,0,2.4,1.1,2.4,2.4c0,0.5-0.2,1-0.5,1.5l-0.1,0.1l-9.2,9.2l-0.1,0.1c-0.2,0.2-0.4,0.3-0.6,0.5C92.7,26.3,92.3,26.4,91.9,26.4"/>
<path class="st0" d="M101.1,13.7c-0.2,0-0.4,0.1-0.6,0.2l-9.2,9.2l0,0c-0.2,0.2-0.4,0.5-0.4,0.8c0,0.6,0.5,1,1,1
	c0.3,0,0.6-0.2,0.8-0.4l0,0l9.2-9.2c0.1-0.2,0.2-0.4,0.2-0.6C102.2,14.2,101.7,13.7,101.1,13.7"/>
<path class="st0" d="M45.9,26.4c-0.5,0-1-0.2-1.5-0.5l-0.1-0.1l-9.2-9.2L35,16.5c-0.2-0.2-0.3-0.4-0.5-0.6c-0.2-0.3-0.3-0.7-0.3-1.1
	c0-1.3,1.1-2.4,2.4-2.4c0.7,0,1.3,0.3,1.7,0.7l0.1,0.1l9.2,9.2l0.1,0.1c0.3,0.4,0.5,0.9,0.5,1.5C48.4,25.3,47.3,26.4,45.9,26.4"/>
<path class="st0" d="M47,24c0-0.2-0.1-0.4-0.2-0.6l-9.2-9.2l0,0c-0.2-0.2-0.5-0.4-0.8-0.4c-0.6,0-1,0.5-1,1c0,0.3,0.2,0.6,0.4,0.8
	l0,0l9.2,9.2c0.2,0.1,0.4,0.2,0.6,0.2C46.5,25,47,24.5,47,24"/>
<path class="st0" d="M45.9,26.4c-1.3,0-2.4-1.1-2.4-2.4c0-0.5,0.2-1,0.5-1.5l0.1-0.1l9.2-9.2l0.1-0.1c0.2-0.2,0.4-0.3,0.6-0.5
	c0.3-0.2,0.7-0.3,1.1-0.3c1.3,0,2.4,1.1,2.4,2.4c0,0.7-0.3,1.3-0.7,1.7l-0.1,0.1l-9.2,9.2l-0.1,0.1C47,26.2,46.5,26.4,45.9,26.4"/>
<path class="st0" d="M45.9,25c0.2,0,0.4-0.1,0.6-0.2l9.2-9.2l0,0c0.2-0.2,0.4-0.5,0.4-0.8c0-0.6-0.5-1-1-1c-0.3,0-0.6,0.2-0.8,0.4
	l0,0l-9.2,9.2c-0.1,0.2-0.2,0.4-0.2,0.6C44.9,24.5,45.4,25,45.9,25"/>
<path class="st0" d="M55.1,17.2c-1.3,0-2.4-1.1-2.4-2.4c0-0.5,0.2-1,0.5-1.5l0.1-0.1l9.2-9.2l0.1-0.1c0.2-0.2,0.4-0.3,0.6-0.5
	c0.3-0.2,0.7-0.3,1.1-0.3c1.3,0,2.4,1.1,2.4,2.4c0,0.7-0.3,1.3-0.7,1.7L66,7.4l-9.2,9.2l-0.1,0.1C56.2,17,55.7,17.2,55.1,17.2"/>
<path class="st0" d="M55.1,15.8c0.2,0,0.4-0.1,0.6-0.2L65,6.4l0,0c0.2-0.2,0.4-0.5,0.4-0.8c0-0.6-0.5-1-1-1c-0.3,0-0.6,0.2-0.8,0.4
	l0,0l-9.2,9.2c-0.1,0.2-0.2,0.4-0.2,0.6C54.1,15.3,54.6,15.8,55.1,15.8"/>
<path class="st0" d="M46,17.2c-1.3,0-2.4-1.1-2.4-2.4c0-0.9-0.2-1.8-0.5-2.6c-0.3-0.8-0.8-1.5-1.5-2.2c-0.6-0.6-1.3-1.1-2.2-1.5
	C38.6,8.2,37.7,8,36.8,8c-1.3,0-2.4-1.1-2.4-2.4s1.1-2.4,2.4-2.4c1.6,0,3.1,0.3,4.5,0.9c1.4,0.6,2.6,1.4,3.7,2.5
	c1.1,1.1,1.9,2.3,2.5,3.7c0.6,1.4,0.9,3,0.9,4.5C48.4,16.1,47.3,17.2,46,17.2"/>
<path class="st0" d="M36.8,4.5c-0.6,0-1,0.5-1,1c0,0.6,0.5,1,1,1c4.5,0,8.2,3.7,8.2,8.2c0,0.6,0.5,1,1,1s1-0.5,1-1
	C47,9.1,42.4,4.5,36.8,4.5"/>
<path class="st0" d="M36.7,26.4c-1.6,0-3.1-0.3-4.5-0.9c-1.4-0.6-2.6-1.4-3.7-2.5c-1.1-1.1-1.9-2.3-2.5-3.7c-0.6-1.4-0.9-3-0.9-4.5
	c0-1.3,1.1-2.4,2.4-2.4s2.4,1.1,2.4,2.4c0,0.9,0.2,1.8,0.5,2.6c0.3,0.8,0.8,1.5,1.5,2.2c0.6,0.6,1.3,1.1,2.2,1.5
	c0.8,0.4,1.7,0.5,2.6,0.5c1.3,0,2.4,1.1,2.4,2.4C39.1,25.3,38,26.4,36.7,26.4"/>
<path class="st0" d="M36.7,23c-4.5,0-8.2-3.7-8.2-8.2c0-0.6-0.5-1-1-1s-1,0.5-1,1c0,5.6,4.6,10.2,10.2,10.2c0.6,0,1-0.5,1-1
	S37.3,23,36.7,23"/>
<path class="st0" d="M27.5,17.2c-1.3,0-2.4-1.1-2.4-2.4c0-1.6,0.3-3.1,0.9-4.5c0.6-1.4,1.4-2.6,2.5-3.7c1.1-1.1,2.3-1.9,3.7-2.5
	c1.4-0.6,3-0.9,4.5-0.9c1.3,0,2.4,1.1,2.4,2.4C39.1,6.9,38,8,36.7,8c-0.9,0-1.8,0.2-2.6,0.5c-0.8,0.3-1.5,0.8-2.2,1.5
	c-0.6,0.6-1.1,1.3-1.5,2.2c-0.4,0.8-0.5,1.7-0.5,2.6C29.9,16.1,28.8,17.2,27.5,17.2"/>
<path class="st0" d="M147.2,26.4c-1.3,0-2.4-1.1-2.4-2.4s1.1-2.4,2.4-2.4s2.4,1.1,2.4,2.4C149.6,25.3,148.5,26.4,147.2,26.4"/>
<path class="st0" d="M147.2,23c0.6,0,1,0.5,1,1c0,0.6-0.5,1-1,1c-0.6,0-1-0.5-1-1C146.1,23.4,146.6,23,147.2,23"/>
</svg>
