<?xml version="1.0" encoding="UTF-8"?>
<!-- Generator: Adobe Illustrator 20.1.0, SVG Export Plug-In . SVG Version: 6.00 Build 0)  -->
<svg version="1.1" id="Layer_1" xmlns="http://www.w3.org/2000/svg" xmlns:xlink="http://www.w3.org/1999/xlink" x="0px" y="0px" viewBox="0 0 155.91 28.35" enable-background="new 0 0 155.91 28.35" xml:space="preserve">
<path fill="#FFFFFF" d="M101.143,7.994c-1.338,0-2.427-1.089-2.427-2.427c0-1.338,1.089-2.426,2.427-2.426h9.204  c1.338,0,2.427,1.088,2.427,2.426c0,1.338-1.089,2.427-2.427,2.427H101.143z"/>
<path fill="#FFFFFF" d="M101.143,6.59h9.204c0.565,0,1.023-0.458,1.023-1.023c0-0.564-0.458-1.022-1.023-1.022h-9.204  c-0.565,0-1.023,0.458-1.023,1.022C100.12,6.132,100.578,6.59,101.143,6.59"/>
<path fill="#FFFFFF" d="M101.143,17.198c-1.338,0-2.427-1.089-2.427-2.427c0-1.338,1.089-2.426,2.427-2.426h9.204  c1.338,0,2.427,1.088,2.427,2.426c0,1.338-1.089,2.427-2.427,2.427H101.143z"/>
<path fill="#FFFFFF" d="M101.143,15.794h9.204c0.565,0,1.023-0.458,1.023-1.023c0-0.564-0.458-1.022-1.023-1.022h-9.204  c-0.565,0-1.023,0.458-1.023,1.022C100.12,15.336,100.578,15.794,101.143,15.794"/>
<path fill="#FFFFFF" d="M101.143,26.402c-1.338,0-2.427-1.089-2.427-2.427c0-1.338,1.089-2.426,2.427-2.426h9.204  c1.338,0,2.427,1.088,2.427,2.426c0,1.338-1.089,2.427-2.427,2.427H101.143z"/>
<path fill="#FFFFFF" d="M101.143,24.998h9.204c0.565,0,1.023-0.458,1.023-1.023c0-0.564-0.458-1.022-1.023-1.022h-9.204  c-0.565,0-1.023,0.458-1.023,1.022C100.12,24.54,100.578,24.998,101.143,24.998"/>
<path fill="#FFFFFF" d="M64.328,7.994c-1.338,0-2.427-1.089-2.427-2.427c0-1.338,1.089-2.426,2.427-2.426h9.204  c1.338,0,2.427,1.088,2.427,2.426c0,1.338-1.089,2.427-2.427,2.427H64.328z"/>
<path fill="#FFFFFF" d="M64.328,6.59h9.204c0.565,0,1.023-0.458,1.023-1.023c0-0.564-0.458-1.022-1.023-1.022h-9.204  c-0.565,0-1.023,0.458-1.023,1.022C63.305,6.132,63.763,6.59,64.328,6.59"/>
<path fill="#FFFFFF" d="M64.328,17.198c-1.338,0-2.427-1.089-2.427-2.427c0-1.338,1.089-2.426,2.427-2.426h9.204  c1.338,0,2.427,1.088,2.427,2.426c0,1.338-1.089,2.427-2.427,2.427H64.328z"/>
<path fill="#FFFFFF" d="M64.328,15.794h9.204c0.565,0,1.023-0.458,1.023-1.023c0-0.564-0.458-1.022-1.023-1.022h-9.204  c-0.565,0-1.023,0.458-1.023,1.022C63.305,15.336,63.763,15.794,64.328,15.794"/>
<path fill="#FFFFFF" d="M64.328,26.402c-1.338,0-2.427-1.089-2.427-2.427c0-1.338,1.089-2.426,2.427-2.426h9.204  c1.338,0,2.427,1.088,2.427,2.426c0,1.338-1.089,2.427-2.427,2.427H64.328z"/>
<path fill="#FFFFFF" d="M64.328,24.998h9.204c0.565,0,1.023-0.458,1.023-1.023c0-0.564-0.458-1.022-1.023-1.022h-9.204  c-0.565,0-1.023,0.458-1.023,1.022C63.305,24.54,63.763,24.998,64.328,24.998"/>
<path fill="#FFFFFF" d="M9.105,26.402c-1.338,0-2.427-1.088-2.427-2.426v-9.204c0-1.338,1.089-2.427,2.427-2.427  c1.338,0,2.427,1.089,2.427,2.427v9.204C11.532,25.314,10.443,26.402,9.105,26.402"/>
<path fill="#FFFFFF" d="M9.105,24.998c0.565,0,1.023-0.458,1.023-1.022v-9.204c0-0.565-0.458-1.023-1.023-1.023  c-0.565,0-1.023,0.458-1.023,1.023v9.204C8.082,24.54,8.54,24.998,9.105,24.998"/>
<path fill="#FFFFFF" d="M137.959,26.402c-1.338,0-2.427-1.089-2.427-2.427v-9.204c0-1.338,1.089-2.426,2.427-2.426  c1.338,0,2.427,1.088,2.427,2.426v9.204C140.386,25.313,139.297,26.402,137.959,26.402"/>
<path fill="#FFFFFF" d="M137.959,13.749c-0.565,0-1.023,0.458-1.023,1.023v9.204c0,0.565,0.458,1.022,1.023,1.022  c0.565,0,1.023-0.457,1.023-1.022v-9.204C138.982,14.207,138.524,13.749,137.959,13.749"/>
<path fill="#FFFFFF" d="M128.754,26.402c-1.338,0-2.427-1.089-2.427-2.427v-9.204c0-1.338,1.089-2.426,2.427-2.426  c1.338,0,2.427,1.088,2.427,2.426v9.204C131.181,25.313,130.092,26.402,128.754,26.402"/>
<path fill="#FFFFFF" d="M128.754,13.749c-0.565,0-1.023,0.458-1.023,1.023v9.204c0,0.565,0.458,1.022,1.023,1.022  c0.565,0,1.023-0.457,1.023-1.022v-9.204C129.777,14.207,129.319,13.749,128.754,13.749"/>
<path fill="#FFFFFF" d="M128.755,26.402c-0.633,0-1.229-0.241-1.684-0.68l-0.033-0.032L108.648,7.3l-0.06-0.061  c-0.431-0.454-0.668-1.045-0.668-1.672c0-1.338,1.089-2.426,2.427-2.426c0.631,0,1.225,0.239,1.68,0.674l0.036,0.036l18.408,18.408  c0.458,0.458,0.711,1.067,0.711,1.716C131.182,25.313,130.093,26.402,128.755,26.402"/>
<path fill="#FFFFFF" d="M109.622,6.289l0.002,0.001v0.001l18.406,18.406h0.001c0.185,0.185,0.441,0.301,0.724,0.301  c0.565,0,1.022-0.458,1.022-1.023c0-0.283-0.114-0.538-0.299-0.723L111.07,4.843v0.001c-0.185-0.185-0.441-0.299-0.723-0.299  c-0.565,0-1.023,0.457-1.023,1.022C109.324,5.849,109.439,6.104,109.622,6.289L109.622,6.289z"/>
<path fill="#FFFFFF" d="M128.752,7.994l-0.06-0.001c-0.777-0.021-1.5-0.414-1.943-1.059c-0.557-0.81-0.562-1.901-0.012-2.716  c0.445-0.66,1.177-1.06,1.966-1.077l0.051-0.001h18.412c0.794,0,1.541,0.393,1.998,1.051c0.559,0.805,0.57,1.895,0.027,2.712  c-0.445,0.67-1.184,1.075-1.982,1.09l-0.047,0.001h-18.383H128.752z"/>
<path fill="#FFFFFF" d="M128.753,6.59h0.002h0.001h18.407V6.589c0.326,0.001,0.653-0.153,0.859-0.462  c0.225-0.339,0.221-0.801-0.011-1.136c-0.207-0.298-0.527-0.447-0.846-0.446l-18.41-0.001c-0.324,0.001-0.648,0.154-0.854,0.459  c-0.227,0.338-0.225,0.8,0.005,1.136C128.113,6.439,128.433,6.589,128.753,6.59z"/>
<path fill="#FFFFFF" d="M18.309,17.198c-0.382,0-0.763-0.092-1.101-0.266c-0.234-0.12-0.45-0.28-0.634-0.47l-0.079-0.073  L7.302,7.178L7.181,7.04C6.852,6.61,6.678,6.101,6.678,5.567c0-1.338,1.089-2.426,2.427-2.426c0.535,0,1.045,0.174,1.475,0.504  l0.136,0.12l9.223,9.204l0.07,0.076c0.465,0.455,0.727,1.071,0.727,1.726C20.736,16.109,19.647,17.198,18.309,17.198"/>
<path fill="#FFFFFF" d="M17.489,15.397l0.009-0.009c0.187,0.245,0.479,0.406,0.811,0.406c0.565,0,1.023-0.458,1.023-1.023  c0-0.326-0.155-0.613-0.393-0.8l0.008-0.008L9.725,4.758C9.552,4.626,9.339,4.545,9.106,4.545c-0.565,0-1.023,0.457-1.023,1.022  c0,0.235,0.081,0.447,0.213,0.619L17.489,15.397z"/>
<path fill="#FFFFFF" d="M82.735,26.402c-1.338,0-2.427-1.088-2.427-2.426v-9.204c0-1.338,1.089-2.427,2.427-2.427  c1.338,0,2.427,1.089,2.427,2.427v9.204C85.162,25.314,84.073,26.402,82.735,26.402"/>
<path fill="#FFFFFF" d="M82.735,24.998c0.565,0,1.023-0.458,1.023-1.022v-9.204c0-0.565-0.458-1.023-1.023-1.023  c-0.565,0-1.023,0.458-1.023,1.023v9.204C81.712,24.54,82.17,24.998,82.735,24.998"/>
<path fill="#FFFFFF" d="M91.939,17.198c-0.382,0-0.763-0.092-1.101-0.266c-0.234-0.12-0.45-0.28-0.634-0.47l-0.079-0.073  l-9.193-9.211L80.811,7.04c-0.329-0.43-0.503-0.939-0.503-1.473c0-1.338,1.089-2.426,2.427-2.426c0.535,0,1.045,0.174,1.474,0.504  l0.137,0.12l9.223,9.204l0.07,0.076c0.465,0.455,0.727,1.071,0.727,1.726C94.366,16.109,93.277,17.198,91.939,17.198"/>
<path fill="#FFFFFF" d="M91.119,15.397l0.009-0.009c0.187,0.245,0.479,0.406,0.811,0.406c0.565,0,1.023-0.458,1.023-1.023  c0-0.326-0.155-0.613-0.393-0.8l0.008-0.008l-9.222-9.205c-0.173-0.132-0.386-0.213-0.619-0.213c-0.565,0-1.023,0.457-1.023,1.022  c0,0.235,0.081,0.447,0.213,0.619L91.119,15.397z"/>
<path fill="#FFFFFF" d="M18.309,26.402c-1.338,0-2.427-1.089-2.427-2.427c0-0.654,0.261-1.269,0.725-1.724l0.072-0.077l9.223-9.206  l0.139-0.121c0.429-0.328,0.938-0.502,1.472-0.502c1.338,0,2.427,1.089,2.427,2.427c0,0.534-0.175,1.043-0.504,1.473l-0.12,0.137  l-9.193,9.211l-0.084,0.079c-0.184,0.187-0.397,0.345-0.628,0.463C19.072,26.31,18.691,26.402,18.309,26.402"/>
<path fill="#FFFFFF" d="M27.513,13.749c-0.234,0-0.447,0.081-0.619,0.213l-9.223,9.205l0.008,0.008  c-0.237,0.187-0.393,0.474-0.393,0.8c0,0.565,0.458,1.023,1.023,1.023c0.332,0,0.624-0.161,0.811-0.406l0.01,0.009l9.192-9.211  c0.132-0.172,0.214-0.385,0.214-0.618C28.536,14.206,28.078,13.749,27.513,13.749"/>
<path fill="#FFFFFF" d="M91.939,26.402c-1.338,0-2.427-1.089-2.427-2.427c0-0.654,0.261-1.269,0.725-1.724l0.072-0.077l9.223-9.206  l0.139-0.121c0.429-0.328,0.938-0.502,1.472-0.502c1.338,0,2.427,1.089,2.427,2.427c0,0.534-0.175,1.043-0.504,1.473l-0.12,0.137  l-9.193,9.211l-0.085,0.079c-0.183,0.187-0.396,0.345-0.627,0.463C92.702,26.31,92.321,26.402,91.939,26.402"/>
<path fill="#FFFFFF" d="M101.143,13.749c-0.234,0-0.447,0.081-0.619,0.213l-9.223,9.205l0.008,0.008  c-0.237,0.187-0.393,0.474-0.393,0.8c0,0.565,0.458,1.023,1.023,1.023c0.332,0,0.624-0.161,0.811-0.406l0.01,0.009l9.192-9.211  c0.132-0.172,0.214-0.385,0.214-0.618C102.166,14.206,101.708,13.749,101.143,13.749"/>
<path fill="#FFFFFF" d="M45.934,26.402c-0.534,0-1.044-0.174-1.473-0.504l-0.138-0.12l-9.211-9.192l-0.078-0.085  c-0.187-0.183-0.345-0.396-0.464-0.628c-0.174-0.339-0.266-0.72-0.266-1.102c0-1.338,1.088-2.426,2.426-2.426  c0.655,0,1.269,0.261,1.724,0.724l0.078,0.072l9.205,9.223l0.122,0.139c0.328,0.43,0.502,0.939,0.502,1.472  C48.361,25.313,47.272,26.402,45.934,26.402"/>
<path fill="#FFFFFF" d="M46.957,23.976c0-0.234-0.081-0.447-0.213-0.619l-9.205-9.223l-0.008,0.008  c-0.187-0.237-0.474-0.393-0.8-0.393c-0.565,0-1.023,0.458-1.023,1.023c0,0.332,0.161,0.624,0.406,0.811l-0.009,0.01l9.211,9.192  c0.172,0.132,0.385,0.214,0.618,0.214C46.5,24.999,46.957,24.541,46.957,23.976"/>
<path fill="#FFFFFF" d="M45.935,26.402c-1.338,0-2.427-1.089-2.427-2.427c0-0.534,0.175-1.043,0.504-1.473l0.12-0.137l9.193-9.211  l0.084-0.078c0.184-0.188,0.397-0.345,0.628-0.464c0.339-0.175,0.72-0.267,1.102-0.267c1.338,0,2.427,1.089,2.427,2.427  c0,0.654-0.261,1.269-0.725,1.724l-0.072,0.078l-9.223,9.205L47.407,25.9C46.978,26.229,46.469,26.402,45.935,26.402"/>
<path fill="#FFFFFF" d="M45.935,24.998c0.234,0,0.447-0.081,0.619-0.213l9.223-9.205l-0.008-0.008  c0.237-0.187,0.393-0.474,0.393-0.8c0-0.565-0.458-1.023-1.023-1.023c-0.332,0-0.624,0.161-0.811,0.406l-0.01-0.009l-9.192,9.211  c-0.132,0.172-0.214,0.385-0.214,0.618C44.912,24.541,45.37,24.998,45.935,24.998"/>
<path fill="#FFFFFF" d="M55.125,17.198c-1.338,0-2.427-1.089-2.427-2.427c0-0.534,0.175-1.043,0.504-1.473l0.12-0.137l9.193-9.211  l0.084-0.078c0.184-0.188,0.397-0.345,0.628-0.464c0.339-0.175,0.72-0.267,1.102-0.267c1.338,0,2.427,1.089,2.427,2.427  c0,0.654-0.261,1.269-0.725,1.724L65.959,7.37l-9.223,9.205l-0.139,0.121C56.168,17.025,55.659,17.198,55.125,17.198"/>
<path fill="#FFFFFF" d="M55.125,15.794c0.234,0,0.447-0.081,0.619-0.213l9.223-9.205l-0.008-0.008  c0.237-0.187,0.393-0.474,0.393-0.8c0-0.565-0.458-1.023-1.023-1.023c-0.332,0-0.624,0.161-0.811,0.406l-0.01-0.009l-9.192,9.211  c-0.132,0.172-0.214,0.385-0.214,0.618C54.102,15.337,54.56,15.794,55.125,15.794"/>
<path fill="#FFFFFF" d="M45.962,17.198c-1.338,0-2.427-1.089-2.427-2.427c0-0.915-0.179-1.803-0.532-2.637  c-0.341-0.807-0.83-1.532-1.453-2.155c-0.622-0.623-1.347-1.112-2.154-1.453c-0.835-0.353-1.722-0.532-2.638-0.532  c-1.338,0-2.427-1.089-2.427-2.427s1.089-2.426,2.427-2.426c1.57,0,3.093,0.307,4.528,0.914c1.385,0.586,2.629,1.424,3.696,2.492  c1.068,1.068,1.906,2.312,2.492,3.697c0.607,1.434,0.915,2.958,0.915,4.527C48.389,16.109,47.3,17.198,45.962,17.198"/>
<path fill="#FFFFFF" d="M36.758,4.545c-0.565,0-1.023,0.458-1.023,1.023c0,0.564,0.458,1.022,1.023,1.022  c4.519,0,8.181,3.663,8.181,8.182c0,0.565,0.458,1.022,1.023,1.022s1.023-0.457,1.023-1.022C46.985,9.124,42.406,4.545,36.758,4.545  "/>
<path fill="#FFFFFF" d="M36.703,26.402c-1.57,0-3.093-0.308-4.528-0.914c-1.385-0.586-2.629-1.425-3.696-2.492  c-1.068-1.068-1.906-2.312-2.492-3.697c-0.607-1.435-0.915-2.958-0.915-4.527c0-1.339,1.089-2.427,2.427-2.427  s2.427,1.088,2.427,2.427c0,0.915,0.179,1.803,0.532,2.637c0.341,0.807,0.83,1.532,1.453,2.155c0.622,0.623,1.347,1.111,2.154,1.453  c0.835,0.353,1.722,0.532,2.638,0.532c1.338,0,2.427,1.088,2.427,2.426C39.13,25.313,38.041,26.402,36.703,26.402"/>
<path fill="#FFFFFF" d="M36.703,22.953c-4.519,0-8.181-3.663-8.181-8.181c0-0.565-0.458-1.023-1.023-1.023s-1.023,0.458-1.023,1.023  c0,5.648,4.579,10.226,10.227,10.226c0.565,0,1.023-0.457,1.023-1.022S37.268,22.953,36.703,22.953"/>
<path fill="#FFFFFF" d="M27.499,17.198c-1.338,0-2.427-1.089-2.427-2.427c0-1.569,0.308-3.092,0.915-4.527  c0.586-1.385,1.424-2.629,2.492-3.697c1.068-1.067,2.311-1.906,3.696-2.492c1.435-0.607,2.958-0.914,4.528-0.914  c1.338,0,2.427,1.088,2.427,2.427c0,1.338-1.089,2.426-2.427,2.426c-0.916,0-1.803,0.179-2.638,0.532  c-0.807,0.341-1.531,0.83-2.154,1.453c-0.623,0.623-1.112,1.348-1.453,2.155c-0.353,0.834-0.532,1.722-0.532,2.637  C29.926,16.109,28.837,17.198,27.499,17.198"/>
<path fill="#FFFFFF" d="M147.163,26.402c-1.338,0-2.427-1.089-2.427-2.427c0-1.338,1.089-2.426,2.427-2.426  c1.338,0,2.426,1.088,2.426,2.426C149.589,25.313,148.501,26.402,147.163,26.402"/>
<path fill="#FFFFFF" d="M147.163,22.953c0.564,0,1.022,0.458,1.022,1.023c0,0.564-0.458,1.022-1.022,1.022  c-0.565,0-1.023-0.458-1.023-1.022C146.14,23.411,146.598,22.953,147.163,22.953"/>
</svg>