<?xml version="1.0" encoding="utf-8"?>
<!-- Generator: Adobe Illustrator 20.1.0, SVG Export Plug-In . SVG Version: 6.00 Build 0)  -->
<svg version="1.1" id="Layer_1" xmlns="http://www.w3.org/2000/svg" xmlns:xlink="http://www.w3.org/1999/xlink" x="0px" y="0px"
	 viewBox="0 0 1133.9 850.4" style="enable-background:new 0 0 1133.9 850.4;" xml:space="preserve">
<style type="text/css">
	.st0{fill:#DDDDDD;}
	.st1{fill:#FFFFFF;}
</style>
<g id="bg">
	<rect y="0" class="st0" width="1133.9" height="850.4"/>
</g>
<g id="icons">
	<g id="user">
		<ellipse class="st1" cx="560.2" cy="343" rx="96.1" ry="115.3"/>
		<path class="st1" d="M748.5,556.4c-17.3-34.6-50-63.4-92.3-80.7c-11.5-3.8-25-3.8-34.6,1.9c-19.2,11.5-38.4,17.3-61.5,17.3
			c-23.1,0-42.3-5.8-61.5-17.3c-9.6-3.8-23.1-5.8-34.6,0c-42.3,17.3-75,46.1-92.3,80.7c-13.5,25,7.7,53.8,36.5,53.8H712
			C740.8,612.1,762,583.3,748.5,556.4z"/>
	</g>
</g>
</svg>
