<?xml version="1.0" encoding="utf-8"?>
<!-- Generator: Adobe Illustrator 20.1.0, SVG Export Plug-In . SVG Version: 6.00 Build 0)  -->
<svg version="1.1" id="Layer_1" xmlns="http://www.w3.org/2000/svg" xmlns:xlink="http://www.w3.org/1999/xlink" x="0px" y="0px"
	 viewBox="0 0 46.5 43.8" style="enable-background:new 0 0 46.5 43.8;" xml:space="preserve">
<style type="text/css">
	.st0{fill:#E2D21F;}
</style>
<path class="st0" d="M14.5,21c-0.9,0-1.6-0.7-1.6-1.6s0.7-1.6,1.6-1.6h5.9c0.9,0,1.6,0.7,1.6,1.6S21.3,21,20.4,21H14.5z"/>
<path class="st0" d="M14.5,20.1h5.9c0.4,0,0.7-0.3,0.7-0.7c0-0.4-0.3-0.7-0.7-0.7h-5.9c-0.4,0-0.7,0.3-0.7,0.7
	C13.8,19.8,14.1,20.1,14.5,20.1"/>
<path class="st0" d="M14.5,26.9c-0.9,0-1.6-0.7-1.6-1.6s0.7-1.6,1.6-1.6h5.9c0.9,0,1.6,0.7,1.6,1.6s-0.7,1.6-1.6,1.6H14.5z"/>
<path class="st0" d="M14.5,26h5.9c0.4,0,0.7-0.3,0.7-0.7c0-0.4-0.3-0.7-0.7-0.7h-5.9c-0.4,0-0.7,0.3-0.7,0.7
	C13.8,25.7,14.1,26,14.5,26"/>
<path class="st0" d="M14.5,32.8c-0.9,0-1.6-0.7-1.6-1.6s0.7-1.6,1.6-1.6h5.9c0.9,0,1.6,0.7,1.6,1.6s-0.7,1.6-1.6,1.6H14.5z"/>
<path class="st0" d="M14.5,31.9h5.9c0.4,0,0.7-0.3,0.7-0.7c0-0.4-0.3-0.7-0.7-0.7h-5.9c-0.4,0-0.7,0.3-0.7,0.7
	C13.8,31.6,14.1,31.9,14.5,31.9"/>
<path class="st0" d="M38.3,3.1c-0.9,0-1.6-0.7-1.6-1.6S37.4,0,38.3,0h5.9c0.9,0,1.6,0.7,1.6,1.6s-0.7,1.6-1.6,1.6H38.3z"/>
<path class="st0" d="M38.3,2.2h5.9c0.4,0,0.7-0.3,0.7-0.7c0-0.4-0.3-0.7-0.7-0.7h-5.9c-0.4,0-0.7,0.3-0.7,0.7
	C37.6,1.9,37.9,2.2,38.3,2.2"/>
<path class="st0" d="M38.3,9.1c-0.9,0-1.6-0.7-1.6-1.6s0.7-1.6,1.6-1.6h5.9c0.9,0,1.6,0.7,1.6,1.6s-0.7,1.6-1.6,1.6H38.3z"/>
<path class="st0" d="M38.3,8.2h5.9c0.4,0,0.7-0.3,0.7-0.7c0-0.4-0.3-0.7-0.7-0.7h-5.9c-0.4,0-0.7,0.3-0.7,0.7
	C37.6,7.9,37.9,8.2,38.3,8.2"/>
<path class="st0" d="M38.3,15c-0.9,0-1.6-0.7-1.6-1.6s0.7-1.6,1.6-1.6h5.9c0.9,0,1.6,0.7,1.6,1.6S45.1,15,44.2,15H38.3z"/>
<path class="st0" d="M38.3,14.1h5.9c0.4,0,0.7-0.3,0.7-0.7c0-0.4-0.3-0.7-0.7-0.7h-5.9c-0.4,0-0.7,0.3-0.7,0.7
	C37.6,13.8,37.9,14.1,38.3,14.1"/>
<path class="st0" d="M2.6,15C1.8,15,1,14.3,1,13.5V7.5c0-0.9,0.7-1.6,1.6-1.6c0.9,0,1.6,0.7,1.6,1.6v5.9C4.2,14.3,3.5,15,2.6,15"/>
<path class="st0" d="M2.6,14.1c0.4,0,0.7-0.3,0.7-0.7V7.5c0-0.4-0.3-0.7-0.7-0.7C2.3,6.9,2,7.1,2,7.5v5.9C2,13.8,2.3,14.1,2.6,14.1"
	/>
<path class="st0" d="M38.3,32.8c-0.9,0-1.6-0.7-1.6-1.6v-5.9c0-0.9,0.7-1.6,1.6-1.6c0.9,0,1.6,0.7,1.6,1.6v5.9
	C39.8,32.1,39.1,32.8,38.3,32.8"/>
<path class="st0" d="M38.3,24.7c-0.4,0-0.7,0.3-0.7,0.7v5.9c0,0.4,0.3,0.7,0.7,0.7c0.4,0,0.7-0.3,0.7-0.7v-5.9
	C38.9,25,38.6,24.7,38.3,24.7"/>
<path class="st0" d="M32.3,32.8c-0.9,0-1.6-0.7-1.6-1.6v-5.9c0-0.9,0.7-1.6,1.6-1.6c0.9,0,1.6,0.7,1.6,1.6v5.9
	C33.9,32.1,33.2,32.8,32.3,32.8"/>
<path class="st0" d="M32.3,24.7c-0.4,0-0.7,0.3-0.7,0.7v5.9c0,0.4,0.3,0.7,0.7,0.7c0.4,0,0.7-0.3,0.7-0.7v-5.9
	C33,25,32.7,24.7,32.3,24.7"/>
<path class="st0" d="M32.3,32.8c-0.4,0-0.8-0.2-1.1-0.4l0,0L19.3,20.5l0,0c-0.3-0.3-0.4-0.7-0.4-1.1c0-0.9,0.7-1.6,1.6-1.6
	c0.4,0,0.8,0.2,1.1,0.4l0,0l11.9,11.9c0.3,0.3,0.5,0.7,0.5,1.1C33.9,32.1,33.2,32.8,32.3,32.8"/>
<path class="st0" d="M20,19.9L20,19.9l11.9,11.9c0.1,0.1,0.3,0.2,0.5,0.2c0.4,0,0.7-0.3,0.7-0.7c0-0.2-0.1-0.3-0.2-0.5L20.9,18.9
	c-0.1-0.1-0.3-0.2-0.5-0.2c-0.4,0-0.7,0.3-0.7,0.7C19.8,19.6,19.9,19.7,20,19.9z"/>
<path class="st0" d="M32.3,21L32.3,21c-0.5,0-1-0.3-1.3-0.7c-0.4-0.5-0.4-1.2,0-1.8c0.3-0.4,0.8-0.7,1.3-0.7h0h11.9
	c0.5,0,1,0.3,1.3,0.7c0.4,0.5,0.4,1.2,0,1.8c-0.3,0.4-0.8,0.7-1.3,0.7l0,0H32.3L32.3,21z"/>
<path class="st0" d="M32.3,20.1L32.3,20.1L32.3,20.1h11.9c0.2,0,0.4-0.1,0.6-0.3c0.1-0.2,0.1-0.5,0-0.7c-0.1-0.2-0.3-0.3-0.5-0.3
	H32.3c-0.2,0-0.4,0.1-0.6,0.3c-0.1,0.2-0.1,0.5,0,0.7C31.9,20,32.1,20.1,32.3,20.1z"/>
<path class="st0" d="M8.6,9.1C8.3,9.1,8.1,9,7.8,8.9C7.7,8.8,7.6,8.7,7.4,8.6l-0.1,0L1.5,2.6L1.4,2.5C1.2,2.2,1,1.9,1,1.6
	C1,0.7,1.8,0,2.6,0c0.3,0,0.7,0.1,1,0.3l0.1,0.1l6,5.9l0,0c0.3,0.3,0.5,0.7,0.5,1.1C10.1,8.4,9.4,9.1,8.6,9.1"/>
<path class="st0" d="M8,7.9L8,7.9c0.1,0.2,0.3,0.3,0.5,0.3c0.4,0,0.7-0.3,0.7-0.7C9.2,7.3,9.1,7.1,9,7l0,0L3,1
	C2.9,1,2.8,0.9,2.6,0.9C2.3,0.9,2,1.2,2,1.6C2,1.7,2,1.9,2.1,2L8,7.9z"/>
<path class="st0" d="M2.6,32.8c-0.9,0-1.6-0.7-1.6-1.6v-5.9c0-0.9,0.7-1.6,1.6-1.6c0.9,0,1.6,0.7,1.6,1.6v5.9
	C4.2,32.1,3.5,32.8,2.6,32.8"/>
<path class="st0" d="M2.6,31.9c0.4,0,0.7-0.3,0.7-0.7v-5.9c0-0.4-0.3-0.7-0.7-0.7C2.2,24.7,2,25,2,25.3v5.9
	C2,31.6,2.2,31.9,2.6,31.9"/>
<path class="st0" d="M8.6,26.9c-0.2,0-0.5-0.1-0.7-0.2c-0.2-0.1-0.3-0.2-0.4-0.3l-0.1,0l-5.9-5.9l-0.1-0.1c-0.2-0.3-0.3-0.6-0.3-1
	c0-0.9,0.7-1.6,1.6-1.6c0.3,0,0.7,0.1,1,0.3l0.1,0.1l6,5.9l0,0c0.3,0.3,0.5,0.7,0.5,1.1C10.1,26.2,9.4,26.9,8.6,26.9"/>
<path class="st0" d="M8,25.7L8,25.7C8.2,25.9,8.3,26,8.6,26c0.4,0,0.7-0.3,0.7-0.7c0-0.2-0.1-0.4-0.3-0.5l0,0l-6-5.9
	c-0.1-0.1-0.2-0.1-0.4-0.1C2.2,18.7,2,19,2,19.4c0,0.2,0.1,0.3,0.1,0.4L8,25.7z"/>
<path class="st0" d="M8.6,15C7.7,15,7,14.3,7,13.5c0-0.4,0.2-0.8,0.5-1.1l0,0l6-5.9l0.1-0.1c0.3-0.2,0.6-0.3,1-0.3
	c0.9,0,1.6,0.7,1.6,1.6c0,0.3-0.1,0.7-0.3,1l-0.1,0.1l-5.9,5.9l-0.1,0c-0.1,0.1-0.3,0.2-0.4,0.3C9.1,15,8.8,15,8.6,15"/>
<path class="st0" d="M14.5,6.9c-0.2,0-0.3,0.1-0.4,0.1l-6,5.9l0,0c-0.2,0.1-0.3,0.3-0.3,0.5c0,0.4,0.3,0.7,0.7,0.7
	c0.2,0,0.4-0.1,0.5-0.3l0,0L15,7.9c0.1-0.1,0.1-0.2,0.1-0.4C15.2,7.1,14.9,6.9,14.5,6.9"/>
<path class="st0" d="M8.6,32.8c-0.9,0-1.6-0.7-1.6-1.6c0-0.4,0.2-0.8,0.5-1.1l0,0l6-5.9l0.1-0.1c0.3-0.2,0.6-0.3,1-0.3
	c0.9,0,1.6,0.7,1.6,1.6c0,0.3-0.1,0.7-0.3,1l-0.1,0.1l-5.9,5.9l-0.1,0c-0.1,0.1-0.3,0.2-0.4,0.3C9.1,32.8,8.8,32.8,8.6,32.8"/>
<path class="st0" d="M14.5,24.7c-0.2,0-0.3,0.1-0.4,0.1l-6,5.9l0,0c-0.2,0.1-0.3,0.3-0.3,0.5c0,0.4,0.3,0.7,0.7,0.7
	c0.2,0,0.4-0.1,0.5-0.3l0,0l5.9-5.9c0.1-0.1,0.1-0.2,0.1-0.4C15.2,25,14.9,24.7,14.5,24.7"/>
<path class="st0" d="M26.4,15c-0.3,0-0.7-0.1-1-0.3l-0.1-0.1l-5.9-5.9l-0.1-0.1c-0.1-0.1-0.2-0.3-0.3-0.4c-0.1-0.2-0.2-0.5-0.2-0.7
	c0-0.9,0.7-1.6,1.6-1.6c0.4,0,0.8,0.2,1.1,0.5l0,0l5.9,6l0.1,0.1c0.2,0.3,0.3,0.6,0.3,1C28,14.3,27.3,15,26.4,15"/>
<path class="st0" d="M27.1,13.5c0-0.2-0.1-0.3-0.1-0.4l-5.9-6l0,0c-0.1-0.2-0.3-0.3-0.5-0.3c-0.4,0-0.7,0.3-0.7,0.7
	c0,0.2,0.1,0.4,0.3,0.5l0,0L26,14c0.1,0.1,0.2,0.1,0.4,0.1C26.8,14.1,27.1,13.8,27.1,13.5"/>
<path class="st0" d="M26.4,15c-0.9,0-1.6-0.7-1.6-1.6c0-0.3,0.1-0.7,0.3-1l0.1-0.1l5.9-5.9l0.1,0c0.1-0.1,0.3-0.2,0.4-0.3
	c0.2-0.1,0.5-0.2,0.7-0.2c0.9,0,1.6,0.7,1.6,1.6c0,0.4-0.2,0.8-0.5,1.1l0,0.1l-6,5.9l-0.1,0.1C27.1,14.9,26.7,15,26.4,15"/>
<path class="st0" d="M26.4,14.1c0.2,0,0.3-0.1,0.4-0.1l6-5.9l0,0C32.9,7.9,33,7.7,33,7.5c0-0.4-0.3-0.7-0.7-0.7
	c-0.2,0-0.4,0.1-0.5,0.3l0,0l-5.9,5.9c-0.1,0.1-0.1,0.2-0.1,0.4C25.7,13.8,26,14.1,26.4,14.1"/>
<path class="st0" d="M32.3,9.1c-0.9,0-1.6-0.7-1.6-1.6c0-0.3,0.1-0.7,0.3-1l0.1-0.1l5.9-5.9l0.1-0.1c0.1-0.1,0.3-0.2,0.4-0.3
	C37.8,0.1,38,0,38.3,0c0.9,0,1.6,0.7,1.6,1.6c0,0.4-0.2,0.8-0.5,1.1l0,0.1l-6,5.9l-0.1,0.1C33,9,32.7,9.1,32.3,9.1"/>
<path class="st0" d="M32.3,8.2c0.2,0,0.3-0.1,0.4-0.1l6-5.9l0,0c0.2-0.1,0.3-0.3,0.3-0.5c0-0.4-0.3-0.7-0.7-0.7
	c-0.2,0-0.4,0.1-0.5,0.3l0,0l-5.9,5.9c-0.1,0.1-0.1,0.2-0.1,0.4C31.7,7.9,32,8.2,32.3,8.2"/>
<path class="st0" d="M26.4,9.1c-0.9,0-1.6-0.7-1.6-1.6c0-0.6-0.1-1.2-0.3-1.7c-0.2-0.5-0.5-1-0.9-1.4c-0.4-0.4-0.9-0.7-1.4-0.9
	c-0.5-0.2-1.1-0.3-1.7-0.3c-0.9,0-1.6-0.7-1.6-1.6c0-0.9,0.7-1.6,1.6-1.6c1,0,2,0.2,2.9,0.6c0.9,0.4,1.7,0.9,2.4,1.6
	c0.7,0.7,1.2,1.5,1.6,2.4C27.8,5.5,28,6.5,28,7.5C28,8.4,27.3,9.1,26.4,9.1"/>
<path class="st0" d="M20.5,0.9c-0.4,0-0.7,0.3-0.7,0.7c0,0.4,0.3,0.7,0.7,0.7c2.9,0,5.3,2.4,5.3,5.3c0,0.4,0.3,0.7,0.7,0.7
	c0.4,0,0.7-0.3,0.7-0.7C27.1,3.9,24.1,0.9,20.5,0.9"/>
<path class="st0" d="M20.4,15c-1,0-2-0.2-2.9-0.6c-0.9-0.4-1.7-0.9-2.4-1.6c-0.7-0.7-1.2-1.5-1.6-2.4c-0.4-0.9-0.6-1.9-0.6-2.9
	c0-0.9,0.7-1.6,1.6-1.6c0.9,0,1.6,0.7,1.6,1.6c0,0.6,0.1,1.2,0.3,1.7c0.2,0.5,0.5,1,0.9,1.4c0.4,0.4,0.9,0.7,1.4,0.9
	c0.5,0.2,1.1,0.3,1.7,0.3c0.9,0,1.6,0.7,1.6,1.6S21.3,15,20.4,15"/>
<path class="st0" d="M20.4,12.8c-2.9,0-5.3-2.4-5.3-5.3c0-0.4-0.3-0.7-0.7-0.7c-0.4,0-0.7,0.3-0.7,0.7c0,3.6,3,6.6,6.6,6.6
	c0.4,0,0.7-0.3,0.7-0.7C21.1,13.1,20.8,12.8,20.4,12.8"/>
<path class="st0" d="M14.5,9.1c-0.9,0-1.6-0.7-1.6-1.6c0-1,0.2-2,0.6-2.9c0.4-0.9,0.9-1.7,1.6-2.4c0.7-0.7,1.5-1.2,2.4-1.6
	C18.4,0.2,19.4,0,20.4,0C21.3,0,22,0.7,22,1.6c0,0.9-0.7,1.6-1.6,1.6c-0.6,0-1.2,0.1-1.7,0.3c-0.5,0.2-1,0.5-1.4,0.9
	c-0.4,0.4-0.7,0.9-0.9,1.4c-0.2,0.5-0.3,1.1-0.3,1.7C16.1,8.4,15.4,9.1,14.5,9.1"/>
<path class="st0" d="M44.2,32.8c-0.9,0-1.6-0.7-1.6-1.6s0.7-1.6,1.6-1.6c0.9,0,1.6,0.7,1.6,1.6S45.1,32.8,44.2,32.8"/>
<path class="st0" d="M44.2,30.6c0.4,0,0.7,0.3,0.7,0.7c0,0.4-0.3,0.7-0.7,0.7c-0.4,0-0.7-0.3-0.7-0.7C43.6,30.9,43.8,30.6,44.2,30.6
	"/>
<path class="st0" d="M3.3,38.6c0.2,0,0.3,0.2,0.3,0.4c0,0.2-0.1,0.4-0.3,0.4h-1v4c0,0.2-0.2,0.3-0.5,0.3c-0.2,0-0.5-0.1-0.5-0.3v-4
	h-1C0.1,39.4,0,39.2,0,39c0-0.2,0.1-0.4,0.3-0.4H3.3z"/>
<path class="st0" d="M6.6,41.4H5v2c0,0.2-0.2,0.3-0.5,0.3c-0.2,0-0.5-0.1-0.5-0.3v-4.6c0-0.2,0.2-0.3,0.5-0.3c0.2,0,0.5,0.1,0.5,0.3
	v1.8h1.6v-1.8c0-0.2,0.2-0.3,0.5-0.3c0.2,0,0.5,0.1,0.5,0.3v4.6c0,0.2-0.2,0.3-0.5,0.3c-0.2,0-0.5-0.1-0.5-0.3V41.4z"/>
<path class="st0" d="M9.3,40.8h1.1c0.2,0,0.3,0.2,0.3,0.4c0,0.2-0.1,0.4-0.3,0.4H9.3v1.4h2c0.2,0,0.3,0.2,0.3,0.4
	c0,0.2-0.1,0.4-0.3,0.4H8.7c-0.2,0-0.4-0.1-0.4-0.3v-4.6c0-0.2,0.2-0.3,0.4-0.3h2.5c0.2,0,0.3,0.2,0.3,0.4c0,0.2-0.1,0.4-0.3,0.4h-2
	V40.8z"/>
<path class="st0" d="M15.9,41.9c-0.1,0.1-0.2,0.2-0.3,0.2s-0.2,0-0.3-0.2l-0.8-1.5v3.1c0,0.2-0.2,0.3-0.5,0.3
	c-0.2,0-0.5-0.1-0.5-0.3V39c0-0.3,0.2-0.5,0.5-0.5c0.3,0,0.5,0.1,0.7,0.5l0.9,1.6l0.9-1.6c0.2-0.4,0.4-0.5,0.7-0.5
	c0.2,0,0.5,0.1,0.5,0.5v4.4c0,0.2-0.2,0.3-0.5,0.3c-0.2,0-0.5-0.1-0.5-0.3v-3L15.9,41.9z"/>
<path class="st0" d="M20.8,40.2c0-0.6-0.3-0.8-0.7-0.8c-0.5,0-0.7,0.3-0.7,0.8v2c0,0.6,0.3,0.8,0.7,0.8c0.5,0,0.7-0.3,0.7-0.8V40.2z
	 M18.4,42.2v-2c0-1.2,0.7-1.6,1.7-1.6c0.9,0,1.7,0.4,1.7,1.6v2c0,1.2-0.7,1.6-1.7,1.6C19.1,43.8,18.4,43.4,18.4,42.2"/>
<path class="st0" d="M22.1,39L22.1,39c0-0.3,0.3-0.5,0.6-0.5c0.2,0,0.3,0,0.3,0.2l1.1,3.8l1.1-3.8c0-0.1,0.2-0.2,0.3-0.2
	c0.2,0,0.6,0.2,0.6,0.4l0,0.1l-1.4,4.4c-0.1,0.2-0.3,0.3-0.6,0.3c-0.3,0-0.5-0.1-0.6-0.3L22.1,39z"/>
<path class="st0" d="M27.5,40.8h1.1c0.2,0,0.3,0.2,0.3,0.4c0,0.2-0.1,0.4-0.3,0.4h-1.1v1.4h2c0.2,0,0.3,0.2,0.3,0.4
	c0,0.2-0.1,0.4-0.3,0.4H27c-0.2,0-0.4-0.1-0.4-0.3v-4.6c0-0.2,0.2-0.3,0.4-0.3h2.5c0.2,0,0.3,0.2,0.3,0.4c0,0.2-0.1,0.4-0.3,0.4h-2
	V40.8z"/>
<path class="st0" d="M32.6,41.9c-0.1,0.1-0.2,0.2-0.3,0.2s-0.2,0-0.3-0.2l-0.8-1.5v3.1c0,0.2-0.2,0.3-0.5,0.3
	c-0.2,0-0.5-0.1-0.5-0.3V39c0-0.3,0.2-0.5,0.5-0.5c0.3,0,0.5,0.1,0.7,0.5l0.9,1.6l0.9-1.6c0.2-0.4,0.4-0.5,0.7-0.5
	c0.2,0,0.5,0.1,0.5,0.5v4.4c0,0.2-0.2,0.3-0.5,0.3c-0.2,0-0.5-0.1-0.5-0.3v-3L32.6,41.9z"/>
<path class="st0" d="M36.2,40.8h1.1c0.2,0,0.3,0.2,0.3,0.4c0,0.2-0.1,0.4-0.3,0.4h-1.1v1.4h2c0.2,0,0.3,0.2,0.3,0.4
	c0,0.2-0.1,0.4-0.3,0.4h-2.5c-0.2,0-0.4-0.1-0.4-0.3v-4.6c0-0.2,0.2-0.3,0.4-0.3h2.5c0.2,0,0.3,0.2,0.3,0.4c0,0.2-0.1,0.4-0.3,0.4
	h-2V40.8z"/>
<path class="st0" d="M41.4,43.5l-1.5-2.8v2.8c0,0.2-0.2,0.3-0.5,0.3c-0.2,0-0.5-0.1-0.5-0.3v-4.6c0-0.2,0.2-0.3,0.5-0.3
	c0.3,0,0.5,0.1,0.7,0.5l1.4,2.6v-2.8c0-0.2,0.2-0.3,0.5-0.3c0.2,0,0.5,0.1,0.5,0.3v4.6c0,0.2-0.2,0.3-0.5,0.3
	C41.7,43.8,41.5,43.7,41.4,43.5"/>
<path class="st0" d="M46.2,38.6c0.2,0,0.3,0.2,0.3,0.4c0,0.2-0.1,0.4-0.3,0.4h-1v4c0,0.2-0.2,0.3-0.5,0.3c-0.2,0-0.5-0.1-0.5-0.3v-4
	h-1c-0.2,0-0.3-0.2-0.3-0.4c0-0.2,0.1-0.4,0.3-0.4H46.2z"/>
</svg>
