<?xml version="1.0" encoding="utf-8"?>
<!-- Generator: Adobe Illustrator 20.1.0, SVG Export Plug-In . SVG Version: 6.00 Build 0)  -->
<svg version="1.1" id="Layer_1" xmlns="http://www.w3.org/2000/svg" xmlns:xlink="http://www.w3.org/1999/xlink" x="0px" y="0px"
	 viewBox="0 0 73.7 70.9" style="enable-background:new 0 0 73.7 70.9;" xml:space="preserve">
<style type="text/css">
	.st0{fill:#E3D200;}
	.st1{fill:#0F1425;}
</style>
<rect x="0.3" y="0.5" class="st0" width="73" height="69.9"/>
<path class="st1" d="M28.1,34.5c-0.9,0-1.6-0.7-1.6-1.6s0.7-1.6,1.6-1.6H34c0.9,0,1.6,0.7,1.6,1.6s-0.7,1.6-1.6,1.6H28.1z"/>
<path class="st1" d="M28.1,33.6H34c0.4,0,0.7-0.3,0.7-0.7c0-0.4-0.3-0.7-0.7-0.7h-5.9c-0.4,0-0.7,0.3-0.7,0.7
	C27.4,33.3,27.7,33.6,28.1,33.6"/>
<path class="st1" d="M28.1,40.4c-0.9,0-1.6-0.7-1.6-1.6s0.7-1.6,1.6-1.6H34c0.9,0,1.6,0.7,1.6,1.6s-0.7,1.6-1.6,1.6H28.1z"/>
<path class="st1" d="M28.1,39.5H34c0.4,0,0.7-0.3,0.7-0.7c0-0.4-0.3-0.7-0.7-0.7h-5.9c-0.4,0-0.7,0.3-0.7,0.7
	C27.4,39.2,27.7,39.5,28.1,39.5"/>
<path class="st1" d="M28.1,46.4c-0.9,0-1.6-0.7-1.6-1.6s0.7-1.6,1.6-1.6H34c0.9,0,1.6,0.7,1.6,1.6s-0.7,1.6-1.6,1.6H28.1z"/>
<path class="st1" d="M28.1,45.5H34c0.4,0,0.7-0.3,0.7-0.7c0-0.4-0.3-0.7-0.7-0.7h-5.9c-0.4,0-0.7,0.3-0.7,0.7
	C27.4,45.2,27.7,45.5,28.1,45.5"/>
<path class="st1" d="M51.9,16.7c-0.9,0-1.6-0.7-1.6-1.6s0.7-1.6,1.6-1.6h5.9c0.9,0,1.6,0.7,1.6,1.6s-0.7,1.6-1.6,1.6H51.9z"/>
<path class="st1" d="M51.9,15.8h5.9c0.4,0,0.7-0.3,0.7-0.7c0-0.4-0.3-0.7-0.7-0.7h-5.9c-0.4,0-0.7,0.3-0.7,0.7
	C51.2,15.5,51.5,15.8,51.9,15.8"/>
<path class="st1" d="M51.9,22.6c-0.9,0-1.6-0.7-1.6-1.6s0.7-1.6,1.6-1.6h5.9c0.9,0,1.6,0.7,1.6,1.6s-0.7,1.6-1.6,1.6H51.9z"/>
<path class="st1" d="M51.9,21.7h5.9c0.4,0,0.7-0.3,0.7-0.7c0-0.4-0.3-0.7-0.7-0.7h-5.9c-0.4,0-0.7,0.3-0.7,0.7
	C51.2,21.4,51.5,21.7,51.9,21.7"/>
<path class="st1" d="M51.9,28.6c-0.9,0-1.6-0.7-1.6-1.6s0.7-1.6,1.6-1.6h5.9c0.9,0,1.6,0.7,1.6,1.6s-0.7,1.6-1.6,1.6H51.9z"/>
<path class="st1" d="M51.9,27.6h5.9c0.4,0,0.7-0.3,0.7-0.7c0-0.4-0.3-0.7-0.7-0.7h-5.9c-0.4,0-0.7,0.3-0.7,0.7
	C51.2,27.4,51.5,27.6,51.9,27.6"/>
<path class="st1" d="M16.2,28.6c-0.9,0-1.6-0.7-1.6-1.6V21c0-0.9,0.7-1.6,1.6-1.6c0.9,0,1.6,0.7,1.6,1.6V27
	C17.8,27.9,17.1,28.6,16.2,28.6"/>
<path class="st1" d="M16.2,27.6c0.4,0,0.7-0.3,0.7-0.7V21c0-0.4-0.3-0.7-0.7-0.7c-0.4,0-0.7,0.3-0.7,0.7V27
	C15.6,27.4,15.9,27.6,16.2,27.6"/>
<path class="st1" d="M51.9,46.4c-0.9,0-1.6-0.7-1.6-1.6v-5.9c0-0.9,0.7-1.6,1.6-1.6c0.9,0,1.6,0.7,1.6,1.6v5.9
	C53.4,45.7,52.7,46.4,51.9,46.4"/>
<path class="st1" d="M51.9,38.2c-0.4,0-0.7,0.3-0.7,0.7v5.9c0,0.4,0.3,0.7,0.7,0.7c0.4,0,0.7-0.3,0.7-0.7v-5.9
	C52.5,38.5,52.2,38.2,51.9,38.2"/>
<path class="st1" d="M45.9,46.4c-0.9,0-1.6-0.7-1.6-1.6v-5.9c0-0.9,0.7-1.6,1.6-1.6c0.9,0,1.6,0.7,1.6,1.6v5.9
	C47.5,45.7,46.8,46.4,45.9,46.4"/>
<path class="st1" d="M45.9,38.2c-0.4,0-0.7,0.3-0.7,0.7v5.9c0,0.4,0.3,0.7,0.7,0.7c0.4,0,0.7-0.3,0.7-0.7v-5.9
	C46.6,38.5,46.3,38.2,45.9,38.2"/>
<path class="st1" d="M45.9,46.4c-0.4,0-0.8-0.2-1.1-0.4l0,0L33,34.1l0,0c-0.3-0.3-0.4-0.7-0.4-1.1c0-0.9,0.7-1.6,1.6-1.6
	c0.4,0,0.8,0.2,1.1,0.4l0,0L47,43.7c0.3,0.3,0.5,0.7,0.5,1.1C47.5,45.7,46.8,46.4,45.9,46.4"/>
<path class="st1" d="M33.6,33.4L33.6,33.4l11.9,11.9c0.1,0.1,0.3,0.2,0.5,0.2c0.4,0,0.7-0.3,0.7-0.7c0-0.2-0.1-0.3-0.2-0.5
	L34.5,32.5c-0.1-0.1-0.3-0.2-0.5-0.2c-0.4,0-0.7,0.3-0.7,0.7C33.4,33.1,33.5,33.3,33.6,33.4z"/>
<path class="st1" d="M45.9,34.5L45.9,34.5c-0.5,0-1-0.3-1.3-0.7c-0.4-0.5-0.4-1.2,0-1.8c0.3-0.4,0.8-0.7,1.3-0.7h0h11.9
	c0.5,0,1,0.3,1.3,0.7c0.4,0.5,0.4,1.2,0,1.8c-0.3,0.4-0.8,0.7-1.3,0.7l0,0H45.9L45.9,34.5z"/>
<path class="st1" d="M45.9,33.6L45.9,33.6L45.9,33.6h11.9c0.2,0,0.4-0.1,0.6-0.3c0.1-0.2,0.1-0.5,0-0.7c-0.1-0.2-0.3-0.3-0.5-0.3
	H45.9c-0.2,0-0.4,0.1-0.6,0.3c-0.1,0.2-0.1,0.5,0,0.7C45.5,33.5,45.7,33.6,45.9,33.6z"/>
<path class="st1" d="M22.2,22.6c-0.2,0-0.5-0.1-0.7-0.2c-0.2-0.1-0.3-0.2-0.4-0.3l-0.1,0l-5.9-5.9L15,16.1c-0.2-0.3-0.3-0.6-0.3-1
	c0-0.9,0.7-1.6,1.6-1.6c0.3,0,0.7,0.1,1,0.3l0.1,0.1l6,5.9l0,0c0.3,0.3,0.5,0.7,0.5,1.1C23.7,21.9,23,22.6,22.2,22.6"/>
<path class="st1" d="M21.6,21.5L21.6,21.5c0.1,0.2,0.3,0.3,0.5,0.3c0.4,0,0.7-0.3,0.7-0.7c0-0.2-0.1-0.4-0.3-0.5l0,0l-6-5.9
	c-0.1-0.1-0.2-0.1-0.4-0.1c-0.4,0-0.7,0.3-0.7,0.7c0,0.2,0.1,0.3,0.1,0.4L21.6,21.5z"/>
<path class="st1" d="M16.2,46.4c-0.9,0-1.6-0.7-1.6-1.6v-5.9c0-0.9,0.7-1.6,1.6-1.6c0.9,0,1.6,0.7,1.6,1.6v5.9
	C17.8,45.7,17.1,46.4,16.2,46.4"/>
<path class="st1" d="M16.2,45.5c0.4,0,0.7-0.3,0.7-0.7v-5.9c0-0.4-0.3-0.7-0.7-0.7c-0.4,0-0.7,0.3-0.7,0.7v5.9
	C15.6,45.2,15.9,45.5,16.2,45.5"/>
<path class="st1" d="M22.2,40.4c-0.2,0-0.5-0.1-0.7-0.2c-0.2-0.1-0.3-0.2-0.4-0.3l-0.1,0L15.1,34L15,33.9c-0.2-0.3-0.3-0.6-0.3-1
	c0-0.9,0.7-1.6,1.6-1.6c0.3,0,0.7,0.1,1,0.3l0.1,0.1l6,5.9l0,0c0.3,0.3,0.5,0.7,0.5,1.1C23.7,39.7,23,40.4,22.2,40.4"/>
<path class="st1" d="M21.6,39.3L21.6,39.3c0.1,0.2,0.3,0.3,0.5,0.3c0.4,0,0.7-0.3,0.7-0.7c0-0.2-0.1-0.4-0.3-0.5l0,0l-6-5.9
	c-0.1-0.1-0.2-0.1-0.4-0.1c-0.4,0-0.7,0.3-0.7,0.7c0,0.2,0.1,0.3,0.1,0.4L21.6,39.3z"/>
<path class="st1" d="M22.2,28.6c-0.9,0-1.6-0.7-1.6-1.6c0-0.4,0.2-0.8,0.5-1.1l0,0l6-5.9l0.1-0.1c0.3-0.2,0.6-0.3,1-0.3
	c0.9,0,1.6,0.7,1.6,1.6c0,0.3-0.1,0.7-0.3,1l-0.1,0.1L23.3,28l-0.1,0c-0.1,0.1-0.3,0.2-0.4,0.3C22.7,28.5,22.4,28.6,22.2,28.6"/>
<path class="st1" d="M28.1,20.4c-0.2,0-0.3,0.1-0.4,0.1l-6,5.9l0,0c-0.2,0.1-0.3,0.3-0.3,0.5c0,0.4,0.3,0.7,0.7,0.7
	c0.2,0,0.4-0.1,0.5-0.3l0,0l5.9-5.9c0.1-0.1,0.1-0.2,0.1-0.4C28.8,20.7,28.5,20.4,28.1,20.4"/>
<path class="st1" d="M22.2,46.4c-0.9,0-1.6-0.7-1.6-1.6c0-0.4,0.2-0.8,0.5-1.1l0,0l6-5.9l0.1-0.1c0.3-0.2,0.6-0.3,1-0.3
	c0.9,0,1.6,0.7,1.6,1.6c0,0.3-0.1,0.7-0.3,1l-0.1,0.1l-5.9,5.9l-0.1,0c-0.1,0.1-0.3,0.2-0.4,0.3C22.7,46.3,22.4,46.4,22.2,46.4"/>
<path class="st1" d="M28.1,38.2c-0.2,0-0.3,0.1-0.4,0.1l-6,5.9l0,0c-0.2,0.1-0.3,0.3-0.3,0.5c0,0.4,0.3,0.7,0.7,0.7
	c0.2,0,0.4-0.1,0.5-0.3l0,0l5.9-5.9c0.1-0.1,0.1-0.2,0.1-0.4C28.8,38.5,28.5,38.2,28.1,38.2"/>
<path class="st1" d="M40,28.6c-0.3,0-0.7-0.1-1-0.3L39,28.2L33,22.2L33,22.2c-0.1-0.1-0.2-0.3-0.3-0.4c-0.1-0.2-0.2-0.5-0.2-0.7
	c0-0.9,0.7-1.6,1.6-1.6c0.4,0,0.8,0.2,1.1,0.5l0,0l5.9,6l0.1,0.1c0.2,0.3,0.3,0.6,0.3,1C41.6,27.9,40.9,28.6,40,28.6"/>
<path class="st1" d="M40.7,27c0-0.2-0.1-0.3-0.1-0.4l-5.9-6l0,0c-0.1-0.2-0.3-0.3-0.5-0.3c-0.4,0-0.7,0.3-0.7,0.7
	c0,0.2,0.1,0.4,0.3,0.5l0,0l5.9,5.9c0.1,0.1,0.2,0.1,0.4,0.1C40.4,27.6,40.7,27.4,40.7,27"/>
<path class="st1" d="M40,28.6c-0.9,0-1.6-0.7-1.6-1.6c0-0.3,0.1-0.7,0.3-1l0.1-0.1l5.9-5.9l0.1,0c0.1-0.1,0.3-0.2,0.4-0.3
	c0.2-0.1,0.5-0.2,0.7-0.2c0.9,0,1.6,0.7,1.6,1.6c0,0.4-0.2,0.8-0.5,1.1l0,0.1l-6,5.9L41,28.2C40.7,28.4,40.3,28.6,40,28.6"/>
<path class="st1" d="M40,27.6c0.2,0,0.3-0.1,0.4-0.1l6-5.9l0,0c0.2-0.1,0.3-0.3,0.3-0.5c0-0.4-0.3-0.7-0.7-0.7
	c-0.2,0-0.4,0.1-0.5,0.3l0,0l-5.9,5.9c-0.1,0.1-0.1,0.2-0.1,0.4C39.3,27.4,39.6,27.6,40,27.6"/>
<path class="st1" d="M45.9,22.6c-0.9,0-1.6-0.7-1.6-1.6c0-0.3,0.1-0.7,0.3-1l0.1-0.1l5.9-5.9l0.1-0.1c0.1-0.1,0.3-0.2,0.4-0.3
	c0.2-0.1,0.5-0.2,0.7-0.2c0.9,0,1.6,0.7,1.6,1.6c0,0.4-0.2,0.8-0.5,1.1l0,0.1l-6,5.9l-0.1,0.1C46.6,22.5,46.3,22.6,45.9,22.6"/>
<path class="st1" d="M45.9,21.7c0.2,0,0.3-0.1,0.4-0.1l6-5.9l0,0c0.2-0.1,0.3-0.3,0.3-0.5c0-0.4-0.3-0.7-0.7-0.7
	c-0.2,0-0.4,0.1-0.5,0.3l0,0l-5.9,5.9c-0.1,0.1-0.1,0.2-0.1,0.4C45.3,21.4,45.6,21.7,45.9,21.7"/>
<path class="st1" d="M40,22.6c-0.9,0-1.6-0.7-1.6-1.6c0-0.6-0.1-1.2-0.3-1.7c-0.2-0.5-0.5-1-0.9-1.4c-0.4-0.4-0.9-0.7-1.4-0.9
	c-0.5-0.2-1.1-0.3-1.7-0.3c-0.9,0-1.6-0.7-1.6-1.6c0-0.9,0.7-1.6,1.6-1.6c1,0,2,0.2,2.9,0.6c0.9,0.4,1.7,0.9,2.4,1.6
	c0.7,0.7,1.2,1.5,1.6,2.4c0.4,0.9,0.6,1.9,0.6,2.9C41.6,21.9,40.9,22.6,40,22.6"/>
<path class="st1" d="M34.1,14.4c-0.4,0-0.7,0.3-0.7,0.7c0,0.4,0.3,0.7,0.7,0.7c2.9,0,5.3,2.4,5.3,5.3c0,0.4,0.3,0.7,0.7,0.7
	c0.4,0,0.7-0.3,0.7-0.7C40.7,17.4,37.7,14.4,34.1,14.4"/>
<path class="st1" d="M34,28.6c-1,0-2-0.2-2.9-0.6c-0.9-0.4-1.7-0.9-2.4-1.6c-0.7-0.7-1.2-1.5-1.6-2.4c-0.4-0.9-0.6-1.9-0.6-2.9
	c0-0.9,0.7-1.6,1.6-1.6c0.9,0,1.6,0.7,1.6,1.6c0,0.6,0.1,1.2,0.3,1.7c0.2,0.5,0.5,1,0.9,1.4c0.4,0.4,0.9,0.7,1.4,0.9
	c0.5,0.2,1.1,0.3,1.7,0.3c0.9,0,1.6,0.7,1.6,1.6S34.9,28.6,34,28.6"/>
<path class="st1" d="M34,26.3c-2.9,0-5.3-2.4-5.3-5.3c0-0.4-0.3-0.7-0.7-0.7c-0.4,0-0.7,0.3-0.7,0.7c0,3.6,3,6.6,6.6,6.6
	c0.4,0,0.7-0.3,0.7-0.7C34.7,26.6,34.4,26.3,34,26.3"/>
<path class="st1" d="M28.1,22.6c-0.9,0-1.6-0.7-1.6-1.6c0-1,0.2-2,0.6-2.9c0.4-0.9,0.9-1.7,1.6-2.4c0.7-0.7,1.5-1.2,2.4-1.6
	c0.9-0.4,1.9-0.6,2.9-0.6c0.9,0,1.6,0.7,1.6,1.6c0,0.9-0.7,1.6-1.6,1.6c-0.6,0-1.2,0.1-1.7,0.3c-0.5,0.2-1,0.5-1.4,0.9
	c-0.4,0.4-0.7,0.9-0.9,1.4c-0.2,0.5-0.3,1.1-0.3,1.7C29.7,21.9,29,22.6,28.1,22.6"/>
<path class="st1" d="M57.8,46.4c-0.9,0-1.6-0.7-1.6-1.6s0.7-1.6,1.6-1.6c0.9,0,1.6,0.7,1.6,1.6S58.7,46.4,57.8,46.4"/>
<path class="st1" d="M57.8,44.2c0.4,0,0.7,0.3,0.7,0.7c0,0.4-0.3,0.7-0.7,0.7c-0.4,0-0.7-0.3-0.7-0.7C57.2,44.5,57.5,44.2,57.8,44.2
	"/>
<path class="st1" d="M16.9,52.1c0.2,0,0.3,0.2,0.3,0.4c0,0.2-0.1,0.4-0.3,0.4h-1v4c0,0.2-0.2,0.3-0.5,0.3c-0.2,0-0.5-0.1-0.5-0.3v-4
	h-1c-0.2,0-0.3-0.2-0.3-0.4c0-0.2,0.1-0.4,0.3-0.4H16.9z"/>
<path class="st1" d="M20.2,55h-1.6v2c0,0.2-0.2,0.3-0.5,0.3c-0.2,0-0.5-0.1-0.5-0.3v-4.6c0-0.2,0.2-0.3,0.5-0.3
	c0.2,0,0.5,0.1,0.5,0.3v1.8h1.6v-1.8c0-0.2,0.2-0.3,0.5-0.3c0.2,0,0.5,0.1,0.5,0.3V57c0,0.2-0.2,0.3-0.5,0.3c-0.2,0-0.5-0.1-0.5-0.3
	V55z"/>
<path class="st1" d="M22.9,54.3h1.1c0.2,0,0.3,0.2,0.3,0.4c0,0.2-0.1,0.4-0.3,0.4h-1.1v1.4h2c0.2,0,0.3,0.2,0.3,0.4
	c0,0.2-0.1,0.4-0.3,0.4h-2.5c-0.2,0-0.4-0.1-0.4-0.3v-4.6c0-0.2,0.2-0.3,0.4-0.3h2.5c0.2,0,0.3,0.2,0.3,0.4c0,0.2-0.1,0.4-0.3,0.4
	h-2V54.3z"/>
<path class="st1" d="M29.5,55.4c-0.1,0.1-0.2,0.2-0.3,0.2s-0.2,0-0.3-0.2L28,53.9V57c0,0.2-0.2,0.3-0.5,0.3c-0.2,0-0.5-0.1-0.5-0.3
	v-4.4c0-0.3,0.2-0.5,0.5-0.5c0.3,0,0.5,0.1,0.7,0.5l0.9,1.6l0.9-1.6c0.2-0.4,0.4-0.5,0.7-0.5c0.2,0,0.5,0.1,0.5,0.5V57
	c0,0.2-0.2,0.3-0.5,0.3c-0.2,0-0.5-0.1-0.5-0.3v-3L29.5,55.4z"/>
<path class="st1" d="M34.4,53.7c0-0.6-0.3-0.8-0.7-0.8c-0.5,0-0.7,0.3-0.7,0.8v2c0,0.6,0.3,0.8,0.7,0.8c0.5,0,0.7-0.3,0.7-0.8V53.7z
	 M32,55.7v-2c0-1.2,0.7-1.6,1.7-1.6c0.9,0,1.7,0.4,1.7,1.6v2c0,1.2-0.7,1.6-1.7,1.6C32.7,57.3,32,56.9,32,55.7"/>
<path class="st1" d="M35.7,52.6L35.7,52.6c0-0.3,0.3-0.5,0.6-0.5c0.2,0,0.3,0,0.3,0.2l1.1,3.8l1.1-3.8c0-0.1,0.2-0.2,0.3-0.2
	c0.2,0,0.6,0.2,0.6,0.4l0,0.1L38.3,57c-0.1,0.2-0.3,0.3-0.6,0.3c-0.3,0-0.5-0.1-0.6-0.3L35.7,52.6z"/>
<path class="st1" d="M41.1,54.3h1.1c0.2,0,0.3,0.2,0.3,0.4c0,0.2-0.1,0.4-0.3,0.4h-1.1v1.4h2c0.2,0,0.3,0.2,0.3,0.4
	c0,0.2-0.1,0.4-0.3,0.4h-2.5c-0.2,0-0.4-0.1-0.4-0.3v-4.6c0-0.2,0.2-0.3,0.4-0.3h2.5c0.2,0,0.3,0.2,0.3,0.4c0,0.2-0.1,0.4-0.3,0.4
	h-2V54.3z"/>
<path class="st1" d="M46.2,55.4c-0.1,0.1-0.2,0.2-0.3,0.2s-0.2,0-0.3-0.2l-0.8-1.5V57c0,0.2-0.2,0.3-0.5,0.3c-0.2,0-0.5-0.1-0.5-0.3
	v-4.4c0-0.3,0.2-0.5,0.5-0.5c0.3,0,0.5,0.1,0.7,0.5l0.9,1.6l0.9-1.6c0.2-0.4,0.4-0.5,0.7-0.5c0.2,0,0.5,0.1,0.5,0.5V57
	c0,0.2-0.2,0.3-0.5,0.3c-0.2,0-0.5-0.1-0.5-0.3v-3L46.2,55.4z"/>
<path class="st1" d="M49.8,54.3h1.1c0.2,0,0.3,0.2,0.3,0.4c0,0.2-0.1,0.4-0.3,0.4h-1.1v1.4h2c0.2,0,0.3,0.2,0.3,0.4
	c0,0.2-0.1,0.4-0.3,0.4h-2.5c-0.2,0-0.4-0.1-0.4-0.3v-4.6c0-0.2,0.2-0.3,0.4-0.3h2.5c0.2,0,0.3,0.2,0.3,0.4c0,0.2-0.1,0.4-0.3,0.4
	h-2V54.3z"/>
<path class="st1" d="M55,57l-1.5-2.8V57c0,0.2-0.2,0.3-0.5,0.3c-0.2,0-0.5-0.1-0.5-0.3v-4.6c0-0.2,0.2-0.3,0.5-0.3
	c0.3,0,0.5,0.1,0.7,0.5l1.4,2.6v-2.8c0-0.2,0.2-0.3,0.5-0.3c0.2,0,0.5,0.1,0.5,0.3V57c0,0.2-0.2,0.3-0.5,0.3
	C55.3,57.3,55.1,57.2,55,57"/>
<path class="st1" d="M59.8,52.1c0.2,0,0.3,0.2,0.3,0.4c0,0.2-0.1,0.4-0.3,0.4h-1v4c0,0.2-0.2,0.3-0.5,0.3c-0.2,0-0.5-0.1-0.5-0.3v-4
	h-1c-0.2,0-0.3-0.2-0.3-0.4c0-0.2,0.1-0.4,0.3-0.4H59.8z"/>
</svg>
