<?xml version="1.0" encoding="utf-8"?>
<!-- Generator: Adobe Illustrator 20.1.0, SVG Export Plug-In . SVG Version: 6.00 Build 0)  -->
<svg version="1.1" id="Layer_1" xmlns="http://www.w3.org/2000/svg" xmlns:xlink="http://www.w3.org/1999/xlink" x="0px" y="0px"
	 viewBox="0 0 1133.9 850.4" style="enable-background:new 0 0 1133.9 850.4;" xml:space="preserve">
<style type="text/css">
	.st0{fill:#DDDDDD;}
	.st1{fill:#FFFFFF;}
</style>
<g id="bg">
	<rect y="0" class="st0" width="1133.9" height="850.4"/>
</g>
<path class="st1" d="M763.1,299.3c-3.7-4.9-9.6-7.7-15.7-7.7h-4.5l-76.4,278.1c-3,10.9-12.9,18.5-24.2,18.5H421
	c-8.7,0-16.8-3.9-22.2-10.7c0,0-0.5-0.9-1.1-2.3c-1.7-3.6-1.4-7.8,0.7-11.2c2.1-3.4,5.8-5.4,9.8-5.4h211.9
	c11.3,0,21.2-7.6,24.2-18.5l77.3-281.5c1.7-6.2,0.4-12.9-3.5-18c-3.9-5.2-10-8.2-16.5-8.2H478.5c-14.3,0-26.8,9.5-30.5,23.3
	l-79.6,290.9c-4,17.3,0,35.4,11.1,49.3c11,13.9,27.8,22,45.5,22h242c10.9,0,20.4-7.3,23.3-17.8l76.3-283.4
	C768.1,310.5,766.8,304.2,763.1,299.3z M608.6,333.9c-0.3,1.3-1.5,2.2-2.8,2.2h-84.7c-0.7,0-1.4-0.3-1.8-0.9c-0.4-0.6-0.6-1.3-0.4-2
	l2.7-9.8c0.3-1.3,1.5-2.2,2.8-2.2h84.7c0.7,0,1.4,0.3,1.8,0.9c0.4,0.6,0.6,1.3,0.4,2L608.6,333.9z M499,293.7
	c0.3-1.3,1.5-2.2,2.8-2.2h146.2c0.7,0,1.4,0.3,1.8,0.9c0.4,0.6,0.6,1.3,0.4,2l-2.7,9.8c-0.3,1.3-1.5,2.1-2.8,2.1H498.5
	c-0.7,0-1.4-0.3-1.8-0.9c-0.4-0.6-0.6-1.3-0.4-2L499,293.7z"/>
</svg>
